<svg width="500" height="500" viewBox="0 0 500 500" fill="none" xmlns="http://www.w3.org/2000/svg">
<path d="M250.002 476.72C373.382 476.72 473.402 422.327 473.402 355.23C473.402 288.133 373.382 233.74 250.002 233.74C126.621 233.74 26.6016 288.133 26.6016 355.23C26.6016 422.327 126.621 476.72 250.002 476.72Z" fill="#F5F5F5"/>
<path d="M250.004 348.87C268.594 348.87 283.664 340.166 283.664 329.43C283.664 318.694 268.594 309.99 250.004 309.99C231.414 309.99 216.344 318.694 216.344 329.43C216.344 340.166 231.414 348.87 250.004 348.87Z" fill="#E0E0E0"/>
<path d="M375.53 400.82C404.917 400.82 428.74 387.066 428.74 370.1C428.74 353.134 404.917 339.38 375.53 339.38C346.143 339.38 322.32 353.134 322.32 370.1C322.32 387.066 346.143 400.82 375.53 400.82Z" fill="#E0E0E0"/>
<path d="M114.421 404.14C143.808 404.14 167.631 390.386 167.631 373.42C167.631 356.454 143.808 342.7 114.421 342.7C85.0339 342.7 61.2109 356.454 61.2109 373.42C61.2109 390.386 85.0339 404.14 114.421 404.14Z" fill="#E0E0E0"/>
<path d="M454.996 348.27L444.946 344.16C443.683 335.473 442.955 326.716 442.766 317.94C442.766 301.52 452.996 281.44 465.976 284.8C478.956 288.16 462.316 306.53 459.616 320.72C456.916 334.91 454.996 348.27 454.996 348.27Z" fill="#BA68C8"/>
<path opacity="0.3" d="M454.996 348.27L444.946 344.16C443.683 335.473 442.955 326.716 442.766 317.94C442.766 301.52 452.996 281.44 465.976 284.8C478.956 288.16 462.316 306.53 459.616 320.72C456.916 334.91 454.996 348.27 454.996 348.27Z" fill="black"/>
<path d="M450.122 347C450.232 346.985 450.331 346.927 450.399 346.839C450.466 346.751 450.496 346.64 450.482 346.53C445.692 310.53 461.882 290.53 462.042 290.36C462.113 290.274 462.148 290.163 462.138 290.051C462.127 289.94 462.073 289.837 461.987 289.765C461.901 289.693 461.79 289.659 461.678 289.669C461.566 289.68 461.463 289.734 461.392 289.82C461.232 290.02 444.802 310.26 449.642 346.64C449.649 346.695 449.667 346.749 449.696 346.797C449.724 346.845 449.761 346.887 449.806 346.921C449.851 346.954 449.902 346.979 449.956 346.992C450.01 347.006 450.067 347.008 450.122 347Z" fill="white"/>
<path d="M460.158 350.67L454.908 348.29C453.336 340.201 453.575 331.865 455.608 323.88C458.978 310.94 470.198 302.96 475.848 304.28C482.758 305.89 483.428 312.28 481.408 316.73C478.998 322 462.378 336.27 460.158 350.67Z" fill="#BA68C8"/>
<path opacity="0.1" d="M460.158 350.67L454.908 348.29C453.336 340.201 453.575 331.865 455.608 323.88C458.978 310.94 470.198 302.96 475.848 304.28C482.758 305.89 483.428 312.28 481.408 316.73C478.998 322 462.378 336.27 460.158 350.67Z" fill="black"/>
<path d="M457.425 349.84C457.537 349.827 457.64 349.771 457.711 349.683C457.782 349.595 457.816 349.482 457.805 349.37C455.445 326.53 475.375 308.97 475.585 308.8C475.661 308.718 475.703 308.611 475.703 308.5C475.703 308.388 475.661 308.281 475.585 308.2C475.546 308.16 475.499 308.128 475.447 308.107C475.396 308.085 475.341 308.074 475.285 308.074C475.229 308.074 475.174 308.085 475.122 308.107C475.071 308.128 475.024 308.16 474.985 308.2C474.775 308.38 454.525 326.2 456.915 349.5C456.939 349.612 457.006 349.71 457.101 349.773C457.196 349.837 457.312 349.861 457.425 349.84Z" fill="white"/>
<path d="M55.997 339.07L62.897 335.13C62.897 335.13 66.197 316.92 63.727 301.26C60.247 279.26 45.257 271.65 39.817 273.84C34.377 276.03 33.097 282.55 42.927 295.27C48.727 302.77 56.187 318.64 55.997 339.07Z" fill="#BA68C8"/>
<g opacity="0.15">
<path d="M55.997 339.07L62.897 335.13C62.897 335.13 66.197 316.92 63.727 301.26C60.247 279.26 45.257 271.65 39.817 273.84C34.377 276.03 33.097 282.55 42.927 295.27C48.727 302.77 56.187 318.64 55.997 339.07Z" fill="black"/>
</g>
<path d="M58.5001 330.33H58.4301C58.3668 330.321 58.3058 330.3 58.2508 330.268C58.1957 330.235 58.1477 330.192 58.1095 330.141C58.0713 330.09 58.0438 330.032 58.0284 329.97C58.0131 329.908 58.0103 329.843 58.0201 329.78C60.8601 309.17 52.5801 286.59 43.2601 277.49C43.2023 277.448 43.1542 277.394 43.119 277.331C43.0839 277.269 43.0626 277.2 43.0565 277.128C43.0504 277.057 43.0597 276.985 43.0838 276.918C43.1079 276.85 43.1462 276.789 43.1961 276.737C43.246 276.686 43.3064 276.646 43.3731 276.62C43.4398 276.594 43.5113 276.583 43.5828 276.587C43.6543 276.591 43.7241 276.61 43.7875 276.643C43.8509 276.677 43.9063 276.723 43.9501 276.78C53.4301 286 61.8801 309 59.0001 329.9C58.9832 330.02 58.9231 330.13 58.8311 330.209C58.7391 330.288 58.6215 330.331 58.5001 330.33Z" fill="white"/>
<path d="M36.8763 350.12C35.7863 350.74 33.5463 349.38 32.6863 348.8C31.2111 347.783 30.0202 346.406 29.2263 344.8C28.3397 342.986 28.0392 340.942 28.3663 338.95C28.5394 337.897 28.7867 336.858 29.1063 335.84L29.9763 332.84C30.3191 331.879 30.4686 330.859 30.4163 329.84C30.1563 327.77 28.3163 326.33 26.6563 325.08C24.8063 323.7 22.8963 321.88 22.9063 319.39C23.0353 317.461 23.8063 315.63 25.0963 314.19C26.2763 312.68 27.6863 311.35 28.7663 309.76C29.6128 308.644 30.0474 307.27 29.9963 305.87C29.8817 305.018 29.596 304.198 29.1563 303.46C28.1446 301.922 27.2617 300.303 26.5163 298.62C25.9063 296.88 25.9963 294.72 27.3563 293.47C27.9615 293.018 28.651 292.691 29.3843 292.509C30.1176 292.327 30.8798 292.293 31.6263 292.41C33.0462 292.577 34.4119 293.055 35.6263 293.81C39.5763 296 41.8263 300.68 46.0163 302.37C47.6752 302.887 49.3653 303.297 51.0763 303.6C51.9351 303.759 52.7509 304.097 53.4709 304.591C54.191 305.086 54.7992 305.726 55.2563 306.47C56.7963 309.54 53.9463 313.32 55.0263 316.58C56.0263 319.46 58.7863 320.58 60.3563 323.17C60.9999 324.315 61.2593 325.636 61.0963 326.94C60.9567 329.145 60.418 331.307 59.5063 333.32C58.4805 335.321 57.3073 337.243 55.9963 339.07C55.9363 339.14 37.0463 350 36.8763 350.12Z" fill="#BA68C8"/>
<path d="M48.0649 344.16C47.9992 344.157 47.9347 344.142 47.875 344.114C47.8153 344.087 47.7616 344.048 47.717 343.999C47.6725 343.951 47.6378 343.894 47.6152 343.833C47.5925 343.771 47.5822 343.705 47.5849 343.64C48.3949 324.14 39.2049 302.64 32.5249 296.34C32.4339 296.248 32.3828 296.124 32.3828 295.995C32.3828 295.866 32.4339 295.742 32.5249 295.65C32.6183 295.558 32.744 295.507 32.8749 295.507C33.0057 295.507 33.1314 295.558 33.2249 295.65C39.9949 302 49.3849 323.9 48.5549 343.69C48.5497 343.816 48.4958 343.936 48.4045 344.023C48.3131 344.111 48.1914 344.16 48.0649 344.16Z" fill="white"/>
<path d="M45.1438 321.11H44.9937C40.3733 319.839 35.6291 319.071 30.8438 318.82C30.7111 318.82 30.584 318.767 30.4902 318.673C30.3964 318.58 30.3438 318.452 30.3438 318.32C30.3438 318.187 30.3964 318.06 30.4902 317.966C30.584 317.873 30.7111 317.82 30.8438 317.82C35.7139 318.073 40.5422 318.854 45.2437 320.15C45.3055 320.168 45.363 320.198 45.413 320.239C45.4631 320.28 45.5046 320.33 45.5352 320.386C45.5659 320.443 45.5851 320.505 45.5917 320.569C45.5983 320.633 45.5922 320.698 45.5738 320.76C45.5446 320.854 45.4882 320.938 45.4117 321C45.3352 321.062 45.242 321.1 45.1438 321.11Z" fill="white"/>
<path d="M401.832 363.76L392.512 362.69L390.102 343.91L401.492 347.29L401.832 363.76Z" fill="#B16668"/>
<path d="M381.411 379.08C381.277 379.45 381.222 379.844 381.249 380.237C381.277 380.63 381.386 381.012 381.571 381.36C382.571 382.52 385.151 383.88 388.671 384.13C392.041 384.37 395.041 383.92 397.011 382.67C397.868 382.227 398.601 381.579 399.146 380.783C399.69 379.987 400.029 379.069 400.131 378.11C400.321 376.2 400.131 374.35 401.021 372.88C401.911 371.41 403.201 369.98 403.491 369.24C403.838 367.963 403.838 366.617 403.491 365.34L381.411 379.08Z" fill="#263238"/>
<path d="M390.622 362.36C390.592 363.085 390.46 363.802 390.232 364.49C389.716 365.971 389.024 367.384 388.172 368.7C387.753 369.399 387.285 370.067 386.772 370.7C385.772 371.91 384.492 372.91 383.412 374.07C382.266 375.164 381.531 376.619 381.332 378.19C381.192 380.83 385.392 381.73 387.602 382.12C389.985 382.537 392.432 382.414 394.762 381.76C395.985 381.441 397.09 380.777 397.945 379.845C398.8 378.914 399.368 377.756 399.582 376.51C399.712 375.77 399.662 375.02 399.752 374.29C400.043 372.604 400.747 371.017 401.802 369.67C402.414 368.893 402.94 368.051 403.372 367.16C404.062 365.53 403.512 363.69 403.072 362.07C402.692 360.66 402.232 359.07 401.732 359.18C401.732 359.91 401.732 360.01 401.242 360.5C400.752 360.99 400.562 362.07 399.862 362.62C400.085 362.011 400.249 361.381 400.352 360.74C400.395 360.483 400.342 360.22 400.202 360C399.97 359.792 399.692 359.642 399.392 359.56C398.351 359.212 397.28 358.968 396.192 358.83C394.706 358.66 393.207 358.66 391.722 358.83C391.412 358.885 391.132 359.048 390.932 359.29C390.752 359.556 390.654 359.869 390.652 360.19C390.602 360.57 390.642 361.66 390.622 362.36Z" fill="#455A64"/>
<path d="M387.815 369.26C388.815 368.52 392.345 368.51 393.545 368.64C394.768 368.745 395.944 369.157 396.965 369.84C397.114 369.947 397.296 369.997 397.479 369.982C397.662 369.968 397.834 369.889 397.965 369.76C398.04 369.685 398.099 369.595 398.136 369.495C398.174 369.395 398.189 369.288 398.182 369.182C398.174 369.075 398.144 368.972 398.092 368.878C398.041 368.785 397.97 368.704 397.885 368.64C396.764 367.813 395.433 367.317 394.045 367.21C392.312 367.083 390.571 367.184 388.865 367.51C388.865 367.51 387.525 368.38 387.815 369.26Z" fill="#F5F5F5"/>
<path d="M385.555 372C386.795 371.27 390.555 371.37 391.765 371.5C392.964 371.623 394.11 372.061 395.085 372.77C395.235 372.875 395.417 372.924 395.599 372.909C395.781 372.895 395.953 372.817 396.085 372.69C396.16 372.615 396.219 372.525 396.257 372.425C396.294 372.325 396.31 372.218 396.302 372.112C396.294 372.005 396.264 371.902 396.213 371.809C396.161 371.715 396.09 371.634 396.005 371.57C394.364 370.72 392.575 370.197 390.735 370.03C387.735 369.82 387.005 370.42 387.005 370.42C386.661 370.559 386.352 370.773 386.101 371.046C385.85 371.319 385.663 371.645 385.555 372Z" fill="#F5F5F5"/>
<path d="M395.225 364.38C393.533 364.187 391.82 364.292 390.165 364.69C389.645 364.98 389.295 365.81 389.635 366.02C391.146 365.612 392.713 365.457 394.275 365.56C395.383 365.671 396.465 365.969 397.475 366.44C397.735 366.56 398.035 366.71 398.295 366.86C398.378 366.913 398.472 366.948 398.571 366.961C398.669 366.975 398.769 366.967 398.863 366.939C398.958 366.91 399.046 366.862 399.12 366.796C399.195 366.731 399.254 366.65 399.295 366.56C399.366 366.413 399.38 366.244 399.334 366.087C399.287 365.93 399.184 365.795 399.045 365.71C397.881 364.999 396.578 364.546 395.225 364.38Z" fill="#F5F5F5"/>
<path d="M367.079 355.22L358.219 352.75V334.84L369.209 335.32L367.079 355.22Z" fill="#B16668"/>
<path d="M339.502 364.81C339.253 365.582 339.299 366.42 339.633 367.16C339.963 367.84 343.553 369.87 348.393 369.54C351.978 369.283 355.43 368.075 358.393 366.04C360.233 364.82 362.152 364.59 364.552 364.46C366.952 364.33 370.092 363.12 370.622 362C370.892 360.997 370.865 359.938 370.543 358.95L339.502 364.81Z" fill="#263238"/>
<path d="M358.999 349.71L358.619 349.63C358.409 349.58 358.189 349.58 357.979 349.63C357.746 349.707 357.539 349.845 357.379 350.03C356.907 350.639 356.495 351.292 356.149 351.98C355.149 353.63 352.999 354.98 350.679 356.25C349.099 357.1 347.549 357.76 345.919 358.49C344.289 359.22 342.039 359.7 340.739 360.58C338.839 361.86 338.589 365.07 340.739 366.34C342.599 367.44 347.519 368.63 352.669 367.17C355.469 366.37 358.589 363.38 362.269 363.09C364.609 362.9 369.039 362.25 370.549 360.47C371.109 359.68 370.359 357.18 369.749 355.02C369.079 352.66 368.449 349.02 367.669 349.19C367.676 349.359 367.642 349.527 367.571 349.68C367.499 349.833 367.392 349.967 367.259 350.07C366.969 350.37 366.579 350.56 366.259 350.83C365.713 351.367 365.272 352.001 364.959 352.7C364.832 353.011 364.598 353.266 364.299 353.42C363.899 353.56 363.609 353.32 363.299 353.16C362.86 352.959 362.362 352.923 361.899 353.06C361.947 352.591 362.031 352.127 362.149 351.67C362.194 351.527 362.194 351.373 362.149 351.23C362.092 351.085 361.986 350.964 361.849 350.89C360.992 350.302 360.021 349.9 358.999 349.71Z" fill="#455A64"/>
<path d="M352.898 354.94C353.066 354.616 353.312 354.34 353.614 354.138C353.917 353.935 354.266 353.812 354.628 353.78C355.688 353.58 357.568 354.37 358.738 355.33C358.85 355.419 358.938 355.534 358.994 355.665C359.051 355.797 359.074 355.94 359.062 356.082C359.051 356.224 359.004 356.362 358.926 356.481C358.849 356.601 358.743 356.701 358.618 356.77C358.461 356.859 358.28 356.896 358.101 356.876C357.921 356.857 357.752 356.781 357.618 356.66C356.328 355.496 354.635 354.879 352.898 354.94Z" fill="#F5F5F5"/>
<path d="M349.594 356.79C349.826 356.462 350.133 356.195 350.49 356.01C350.846 355.826 351.242 355.73 351.644 355.73C353.288 355.802 354.867 356.394 356.154 357.42C356.259 357.508 356.342 357.62 356.394 357.746C356.447 357.872 356.469 358.01 356.457 358.146C356.445 358.283 356.4 358.414 356.327 358.53C356.253 358.646 356.153 358.742 356.034 358.81C355.878 358.904 355.696 358.944 355.515 358.924C355.335 358.904 355.165 358.825 355.034 358.7C354.326 357.997 353.471 357.46 352.53 357.13C351.589 356.799 350.586 356.683 349.594 356.79Z" fill="#F5F5F5"/>
<path d="M346 358.45C346.264 358.148 346.59 357.907 346.956 357.743C347.322 357.579 347.719 357.496 348.12 357.5C349.703 357.598 351.215 358.193 352.44 359.2C352.545 359.289 352.628 359.402 352.68 359.529C352.733 359.656 352.754 359.794 352.743 359.931C352.731 360.068 352.686 360.201 352.613 360.317C352.539 360.434 352.439 360.531 352.32 360.6C352.164 360.694 351.982 360.734 351.801 360.714C351.621 360.694 351.452 360.615 351.32 360.49C350.652 359.762 349.823 359.198 348.9 358.844C347.977 358.49 346.984 358.355 346 358.45Z" fill="#F5F5F5"/>
<path d="M399.787 238.37C400.397 256.84 400.437 296.84 400.437 296.84C400.627 299.14 400.827 303.22 400.997 311.5C401.247 323.5 401.827 353.13 401.827 353.13C401.827 353.13 396.097 355.82 390.827 353.63C390.827 353.63 383.507 311.97 382.007 300.09C380.697 289.72 378.187 265.4 378.187 265.4L374.727 296.27C374.727 296.27 374.727 304.27 374.257 311.33C373.867 316.83 368.527 345.16 368.527 345.16C365.04 346.087 361.356 345.965 357.937 344.81C357.937 344.81 357.457 301.32 357.357 296.27C357.247 290.53 358.727 228.47 358.727 228.47L399.787 238.37Z" fill="#455A64"/>
<path d="M378.212 265.4L376.892 254.93C372.63 253.84 368.598 251.991 364.992 249.47C364.992 249.47 367.532 252.87 374.992 256.47L376.672 265.97L374.772 296.27L378.212 265.4Z" fill="#37474F"/>
<path d="M358.261 186.54C355.561 190.08 341.671 209.14 341.671 209.14L328.841 199.2C325.841 196.85 324.951 193.77 323.071 191.64C321.191 189.51 319.131 189 317.021 187.22C314.911 185.44 314.101 184.09 313.381 185.61C312.661 187.13 314.991 189.78 315.381 190.42C315.771 191.06 318.181 192.59 315.001 192.42C311.821 192.25 305.701 188.62 304.221 187.95C302.741 187.28 302.701 189.11 303.401 190.31C304.101 191.51 303.751 194.85 304.571 197C305.391 199.15 306.831 200.47 309.761 201.92C312.491 203.28 319.131 204.13 321.291 205.49C326.031 210.35 334.971 219.42 337.231 221.1C340.341 223.41 343.351 225.54 348.111 220.96C352.871 216.38 366.661 198.41 366.661 198.41L369.511 181.32C364.831 181.15 361.521 182.27 358.261 186.54Z" fill="#B16668"/>
<path d="M341.672 209.14C343.432 210.44 345.262 213.36 345.432 214.67C345.411 213.429 345.134 212.205 344.618 211.076C344.102 209.947 343.357 208.938 342.432 208.11L341.672 209.14Z" fill="#9A4A4D"/>
<path d="M370.609 180.9C370.609 180.9 364.009 180.82 361.109 182.85C358.209 184.88 356.059 187.85 351.349 194.7C347.219 200.7 345.219 203.58 345.219 203.58C347.922 207.579 351.859 210.585 356.429 212.14L368.749 196.88L370.609 180.9Z" fill="#37474F"/>
<path d="M383.38 180.58C387.12 180.94 392.38 180.98 396.08 181.36C398.65 182.42 403.61 186.74 403.24 189.82C401.86 201.33 399.07 220.2 399.07 220.2L399.99 240.2C394.84 245.34 370.74 247.35 358.32 239.13C358.32 239.13 358.72 203.21 359.58 197.13C361.11 186.24 362.45 182.2 368.07 181.24C373.69 180.28 383.38 180.58 383.38 180.58Z" fill="#BA68C8"/>
<path d="M404.558 186.83C407.258 190.37 421.158 209.43 421.158 209.43L433.998 199.49C436.998 197.13 437.888 194.05 439.768 191.93C441.648 189.81 443.708 189.29 445.818 187.51C447.928 185.73 448.738 184.38 449.458 185.89C450.178 187.4 447.848 190.07 447.458 190.71C447.068 191.35 444.658 192.88 447.838 192.71C451.018 192.54 457.128 188.9 458.618 188.23C460.108 187.56 460.128 189.39 459.438 190.59C458.748 191.79 459.078 195.14 458.268 197.29C457.458 199.44 456.008 200.75 453.078 202.21C450.348 203.57 443.708 204.42 441.548 205.78C436.808 210.63 427.868 219.71 425.608 221.38C422.498 223.69 419.488 225.82 414.728 221.25C409.968 216.68 399.088 202.45 399.088 202.45L393.328 181.61C397.998 181.44 401.308 182.56 404.558 186.83Z" fill="#B16668"/>
<path d="M421.158 209.43C419.398 210.73 417.568 213.65 417.398 214.96C417.418 213.717 417.694 212.492 418.21 211.361C418.727 210.23 419.472 209.219 420.398 208.39L421.158 209.43Z" fill="#9A4A4D"/>
<path d="M392.672 181.11C392.672 181.11 398.602 180.74 401.722 183.11C404.532 185.27 406.722 188.11 411.482 194.96C415.612 200.96 417.612 203.84 417.612 203.84C414.903 207.838 410.964 210.843 406.392 212.4L398.002 202.06C393.632 196.52 389.302 188.09 392.672 181.11Z" fill="#37474F"/>
<path d="M384.309 153.5C384.329 155.794 383.668 158.043 382.409 159.961C381.151 161.88 379.352 163.382 377.241 164.278C375.129 165.174 372.798 165.424 370.544 164.996C368.29 164.568 366.214 163.481 364.578 161.873C362.942 160.264 361.819 158.207 361.352 155.961C360.885 153.715 361.095 151.38 361.954 149.253C362.814 147.126 364.285 145.302 366.182 144.011C368.078 142.72 370.315 142.02 372.609 142C374.132 141.987 375.643 142.274 377.056 142.845C378.468 143.416 379.754 144.259 380.841 145.327C381.927 146.395 382.793 147.666 383.388 149.069C383.983 150.471 384.296 151.977 384.309 153.5Z" fill="#263238"/>
<path d="M392.84 161.68C392.84 161.68 391.03 170.53 390.29 171.98C389.797 172.881 388.978 173.557 388 173.87L388.07 167.65L392.84 161.68Z" fill="#263238"/>
<path d="M390.375 149.05C391.03 148.966 391.697 149.033 392.322 149.246C392.948 149.459 393.517 149.813 393.985 150.28C395.545 151.85 394.725 156.81 392.845 161.68L389.305 162.12L390.375 149.05Z" fill="#263238"/>
<path d="M388.242 162.13C388.952 162.55 389.952 161.13 390.822 160.25C391.692 159.37 394.532 158.05 395.992 161.04C397.452 164.03 394.792 168.16 392.552 168.88C388.682 170.14 388.072 167.65 388.072 167.65L387.912 182.07C383.152 188.3 369.762 187.89 375.282 181.39V177.13C373.558 177.419 371.808 177.523 370.062 177.44C367.202 177.03 365.392 174.79 364.492 171.71C363.062 166.77 362.492 162.77 363.592 153C364.792 142.3 377.222 142.08 383.972 146.25C390.722 150.42 388.242 162.13 388.242 162.13Z" fill="#B16668"/>
<path d="M388.25 163.32C388.6 163.32 389.94 161.06 390.82 160.25C392.03 159.12 390.37 149.05 390.37 149.05C390.785 148.156 390.922 147.158 390.761 146.186C390.6 145.214 390.15 144.313 389.47 143.6C387.78 141.77 385.42 139.54 377.82 140.5C372.39 141.19 366.5 142.94 361.71 140.64C361.283 142.199 361.332 143.851 361.848 145.382C362.365 146.914 363.326 148.257 364.61 149.24C364.61 149.24 366.35 150.34 370.9 150.85C375.095 151.126 379.307 151.009 383.48 150.5C384.8 150.31 385.09 151.58 385.83 155.07C386.48 158.12 387.05 163.31 388.25 163.32Z" fill="#263238"/>
<path d="M390.367 149.83L394.637 147.49C394.499 147.201 394.303 146.944 394.061 146.733C393.82 146.522 393.538 146.363 393.233 146.265C392.928 146.166 392.606 146.131 392.287 146.161C391.968 146.192 391.658 146.286 391.377 146.44C390.805 146.767 390.381 147.301 390.193 147.933C390.004 148.564 390.067 149.244 390.367 149.83Z" fill="#263238"/>
<path d="M375.25 177.13C375.25 177.13 381.61 175.79 383.82 174.59C385.123 173.897 386.186 172.827 386.87 171.52C386.547 172.823 385.966 174.047 385.16 175.12C383.55 177.22 375.27 178.82 375.27 178.82L375.25 177.13Z" fill="#9A4A4D"/>
<path d="M374.742 161.11C374.74 161.28 374.771 161.449 374.834 161.608C374.897 161.766 374.991 161.91 375.11 162.032C375.229 162.153 375.37 162.25 375.527 162.317C375.684 162.384 375.852 162.419 376.022 162.42C376.288 162.43 376.551 162.36 376.776 162.219C377.002 162.078 377.18 161.873 377.288 161.63C377.396 161.387 377.428 161.117 377.381 160.855C377.334 160.593 377.209 160.352 377.024 160.161C376.838 159.971 376.599 159.841 376.338 159.788C376.078 159.735 375.807 159.761 375.562 159.863C375.316 159.965 375.107 160.138 374.961 160.361C374.815 160.583 374.739 160.844 374.742 161.11Z" fill="#263238"/>
<path d="M378.533 156.72L375.693 155.43C375.528 155.819 375.519 156.256 375.668 156.651C375.817 157.045 376.113 157.368 376.493 157.55C376.681 157.633 376.884 157.678 377.089 157.681C377.295 157.684 377.499 157.646 377.689 157.568C377.88 157.491 378.053 157.376 378.198 157.23C378.343 157.084 378.457 156.911 378.533 156.72Z" fill="#263238"/>
<path d="M366.384 155.15L363.914 157.09C364.031 157.258 364.181 157.401 364.355 157.508C364.529 157.616 364.724 157.687 364.927 157.716C365.129 157.745 365.336 157.732 365.533 157.677C365.731 157.623 365.915 157.529 366.074 157.4C366.402 157.135 366.617 156.754 366.674 156.336C366.732 155.919 366.628 155.494 366.384 155.15Z" fill="#263238"/>
<path d="M364.891 160.8C364.903 161.039 364.985 161.269 365.126 161.462C365.268 161.654 365.463 161.801 365.687 161.884C365.911 161.967 366.155 161.982 366.388 161.928C366.62 161.874 366.832 161.752 366.996 161.578C367.161 161.404 367.27 161.186 367.311 160.951C367.353 160.715 367.324 160.473 367.229 160.253C367.133 160.034 366.976 159.848 366.775 159.717C366.575 159.587 366.34 159.518 366.101 159.52C365.938 159.524 365.776 159.56 365.627 159.627C365.477 159.693 365.342 159.789 365.23 159.908C365.117 160.027 365.029 160.167 364.971 160.32C364.913 160.473 364.886 160.636 364.891 160.8Z" fill="#263238"/>
<path d="M371.514 159.77L370.794 167.42L366.844 165.9L371.514 159.77Z" fill="#9A4A4D"/>
<path d="M373.68 170.29C373.678 170.534 373.748 170.773 373.882 170.976C374.016 171.18 374.208 171.339 374.432 171.434C374.657 171.528 374.904 171.554 375.144 171.508C375.383 171.461 375.603 171.345 375.776 171.173C375.949 171.002 376.067 170.783 376.115 170.544C376.164 170.305 376.14 170.057 376.047 169.832C375.954 169.606 375.797 169.414 375.594 169.278C375.392 169.142 375.153 169.07 374.91 169.07C374.585 169.07 374.274 169.198 374.043 169.427C373.813 169.655 373.682 169.966 373.68 170.29Z" fill="#9A4A4D"/>
<path d="M404.9 88.82C406.807 89.2447 408.645 89.9348 410.36 90.87C412.001 91.7529 413.47 92.9212 414.7 94.32C415.884 95.6753 416.758 97.2724 417.26 99C417.786 100.831 417.828 102.768 417.38 104.62C417.084 106.09 416.5 107.487 415.66 108.73C414.906 109.799 414 110.753 412.97 111.56C411.963 112.342 410.889 113.035 409.76 113.63L406.58 115.31C405.621 115.811 404.71 116.4 403.86 117.07C403.092 117.653 402.503 118.439 402.16 119.34C401.988 119.742 401.707 120.088 401.35 120.34C401.179 120.471 400.98 120.562 400.769 120.605C400.558 120.648 400.339 120.643 400.13 120.59L395.45 119.59C395.226 119.543 395.013 119.451 394.824 119.321C394.635 119.19 394.474 119.023 394.35 118.83C394.22 118.649 394.133 118.44 394.098 118.219C394.064 117.998 394.082 117.773 394.15 117.56C394.54 116.105 395.22 114.745 396.15 113.56C396.988 112.515 397.956 111.58 399.03 110.78C400.068 110.021 401.169 109.352 402.32 108.78C403.46 108.21 404.52 107.66 405.5 107.12C406.397 106.647 407.238 106.077 408.01 105.42C408.684 104.853 409.151 104.08 409.34 103.22C409.513 102.469 409.502 101.688 409.307 100.942C409.112 100.197 408.739 99.51 408.22 98.94C406.928 97.527 405.199 96.5871 403.31 96.27C399.817 95.49 396.864 96.6667 394.45 99.8C394.219 100.143 393.923 100.438 393.58 100.67C393.395 100.765 393.192 100.821 392.984 100.837C392.777 100.852 392.568 100.826 392.37 100.76L387.37 99.65C387.194 99.6161 387.026 99.5473 386.877 99.4477C386.728 99.3481 386.6 99.2197 386.5 99.07C386.392 98.9169 386.318 98.7414 386.285 98.5564C386.252 98.3714 386.261 98.1813 386.31 98C386.731 96.4631 387.52 95.0522 388.61 93.89C389.834 92.5395 391.286 91.4156 392.9 90.57C394.669 89.6413 396.578 89.0063 398.55 88.69C400.655 88.3197 402.812 88.3639 404.9 88.82ZM399.62 124.36C399.84 124.407 400.047 124.499 400.23 124.629C400.412 124.76 400.566 124.927 400.68 125.12C400.803 125.307 400.887 125.516 400.927 125.736C400.966 125.956 400.961 126.182 400.91 126.4L399.71 131.82C399.61 132.253 399.345 132.629 398.972 132.87C398.598 133.111 398.146 133.197 397.71 133.11L392.41 131.94C392.192 131.893 391.986 131.803 391.804 131.674C391.621 131.545 391.467 131.38 391.35 131.19C391.226 131.004 391.141 130.794 391.101 130.574C391.062 130.354 391.068 130.128 391.12 129.91L392.32 124.48C392.421 124.047 392.686 123.671 393.059 123.43C393.432 123.189 393.885 123.103 394.32 123.19L399.62 124.36Z" fill="#BA68C8"/>
<path d="M420.623 139.81C421.946 139.592 423.293 139.565 424.623 139.73C425.902 139.875 427.145 140.248 428.293 140.83C429.389 141.391 430.351 142.182 431.113 143.15C431.921 144.187 432.441 145.418 432.623 146.72C432.831 147.733 432.831 148.777 432.623 149.79C432.415 150.671 432.078 151.517 431.623 152.3C431.178 153.055 430.669 153.771 430.103 154.44L428.493 156.34C428.009 156.908 427.574 157.517 427.193 158.16C426.854 158.731 426.681 159.386 426.693 160.05C426.691 160.362 426.601 160.667 426.433 160.93C426.357 161.056 426.253 161.163 426.131 161.244C426.008 161.326 425.869 161.379 425.723 161.4L422.453 161.94C422.137 161.99 421.814 161.914 421.553 161.73C421.425 161.646 421.318 161.534 421.24 161.402C421.162 161.271 421.115 161.123 421.103 160.97C420.966 159.945 421.045 158.903 421.333 157.91C421.593 157.019 421.973 156.168 422.463 155.38C422.931 154.626 423.463 153.913 424.053 153.25C424.643 152.59 425.173 151.97 425.673 151.37C426.124 150.837 426.516 150.257 426.843 149.64C427.13 149.104 427.232 148.489 427.133 147.89C427.052 147.363 426.844 146.864 426.527 146.435C426.21 146.007 425.793 145.662 425.313 145.43C424.128 144.851 422.782 144.689 421.493 144.97C420.327 145.142 419.243 145.669 418.387 146.48C417.532 147.29 416.947 148.345 416.713 149.5C416.65 149.782 416.534 150.05 416.373 150.29C416.179 150.503 415.91 150.632 415.623 150.65L412.143 151.22C411.896 151.261 411.643 151.207 411.433 151.07C411.324 150.999 411.231 150.905 411.162 150.794C411.093 150.684 411.049 150.559 411.033 150.43C410.912 149.338 411.06 148.232 411.463 147.21C411.897 146.028 412.541 144.934 413.363 143.98C414.26 142.933 415.321 142.038 416.503 141.33C417.765 140.561 419.164 140.044 420.623 139.81ZM426.333 164C426.486 163.974 426.643 163.98 426.795 164.016C426.946 164.052 427.088 164.118 427.213 164.21C427.338 164.299 427.444 164.412 427.525 164.542C427.606 164.673 427.66 164.818 427.683 164.97L428.303 168.75C428.329 168.903 428.324 169.06 428.288 169.211C428.251 169.362 428.185 169.505 428.093 169.63C428.006 169.756 427.893 169.863 427.762 169.944C427.631 170.025 427.485 170.078 427.333 170.1L423.633 170.71C423.482 170.735 423.326 170.729 423.177 170.693C423.027 170.657 422.887 170.591 422.763 170.5C422.635 170.413 422.526 170.301 422.444 170.17C422.361 170.039 422.306 169.893 422.283 169.74L421.663 165.95C421.617 165.638 421.697 165.321 421.884 165.068C422.072 164.815 422.352 164.647 422.663 164.6L426.333 164Z" fill="#BA68C8"/>
<g opacity="0.2">
<path d="M420.623 139.81C421.946 139.592 423.293 139.565 424.623 139.73C425.902 139.875 427.145 140.248 428.293 140.83C429.389 141.391 430.351 142.182 431.113 143.15C431.921 144.187 432.441 145.418 432.623 146.72C432.831 147.733 432.831 148.777 432.623 149.79C432.415 150.671 432.078 151.517 431.623 152.3C431.178 153.055 430.669 153.771 430.103 154.44L428.493 156.34C428.009 156.908 427.574 157.517 427.193 158.16C426.854 158.731 426.681 159.386 426.693 160.05C426.691 160.362 426.601 160.667 426.433 160.93C426.357 161.056 426.253 161.163 426.131 161.244C426.008 161.326 425.869 161.379 425.723 161.4L422.453 161.94C422.137 161.99 421.814 161.914 421.553 161.73C421.425 161.646 421.318 161.534 421.24 161.402C421.162 161.271 421.115 161.123 421.103 160.97C420.966 159.945 421.045 158.903 421.333 157.91C421.593 157.019 421.973 156.168 422.463 155.38C422.931 154.626 423.463 153.913 424.053 153.25C424.643 152.59 425.173 151.97 425.673 151.37C426.124 150.837 426.516 150.257 426.843 149.64C427.13 149.104 427.232 148.489 427.133 147.89C427.052 147.363 426.844 146.864 426.527 146.435C426.21 146.007 425.793 145.662 425.313 145.43C424.128 144.851 422.782 144.689 421.493 144.97C420.327 145.142 419.243 145.669 418.387 146.48C417.532 147.29 416.947 148.345 416.713 149.5C416.65 149.782 416.534 150.05 416.373 150.29C416.179 150.503 415.91 150.632 415.623 150.65L412.143 151.22C411.896 151.261 411.643 151.207 411.433 151.07C411.324 150.999 411.231 150.905 411.162 150.794C411.093 150.684 411.049 150.559 411.033 150.43C410.912 149.338 411.06 148.232 411.463 147.21C411.897 146.028 412.541 144.934 413.363 143.98C414.26 142.933 415.321 142.038 416.503 141.33C417.765 140.561 419.164 140.044 420.623 139.81ZM426.333 164C426.486 163.974 426.643 163.98 426.795 164.016C426.946 164.052 427.088 164.118 427.213 164.21C427.338 164.299 427.444 164.412 427.525 164.542C427.606 164.673 427.66 164.818 427.683 164.97L428.303 168.75C428.329 168.903 428.324 169.06 428.288 169.211C428.251 169.362 428.185 169.505 428.093 169.63C428.006 169.756 427.893 169.863 427.762 169.944C427.631 170.025 427.485 170.078 427.333 170.1L423.633 170.71C423.482 170.735 423.326 170.729 423.177 170.693C423.027 170.657 422.887 170.591 422.763 170.5C422.635 170.413 422.526 170.301 422.444 170.17C422.361 170.039 422.306 169.893 422.283 169.74L421.663 165.95C421.617 165.638 421.697 165.321 421.884 165.068C422.072 164.815 422.352 164.647 422.663 164.6L426.333 164Z" fill="black"/>
</g>
<path d="M454.719 150.54C455.016 150.757 455.217 151.081 455.278 151.443C455.34 151.805 455.258 152.177 455.049 152.48L452.409 156.18C452.192 156.477 451.868 156.678 451.506 156.739C451.144 156.801 450.772 156.719 450.469 156.51L446.849 153.94C446.7 153.836 446.573 153.702 446.477 153.547C446.381 153.393 446.317 153.22 446.289 153.04C446.236 152.69 446.319 152.332 446.519 152.04L449.159 148.33C449.373 148.032 449.697 147.831 450.059 147.77C450.411 147.717 450.769 147.803 451.059 148.01L454.719 150.54ZM469.999 125.45C471.304 126.371 472.47 127.476 473.459 128.73C474.415 129.924 475.149 131.278 475.629 132.73C476.087 134.118 476.241 135.588 476.079 137.04C475.891 138.587 475.306 140.058 474.379 141.31C473.688 142.323 472.805 143.189 471.779 143.86C470.867 144.426 469.876 144.854 468.839 145.13C467.833 145.398 466.806 145.579 465.769 145.67L462.829 145.92C461.951 146.001 461.081 146.154 460.229 146.38C459.466 146.582 458.774 146.99 458.229 147.56C457.967 147.815 457.643 147.998 457.289 148.09C457.117 148.131 456.938 148.133 456.766 148.097C456.593 148.06 456.43 147.986 456.289 147.88L453.089 145.61C452.784 145.39 452.576 145.06 452.509 144.69C452.471 144.515 452.473 144.334 452.517 144.161C452.56 143.987 452.643 143.826 452.759 143.69C453.503 142.714 454.439 141.901 455.509 141.3C456.472 140.772 457.501 140.375 458.569 140.12C459.594 139.872 460.637 139.712 461.689 139.64C462.689 139.58 463.689 139.5 464.609 139.41C465.435 139.339 466.25 139.174 467.039 138.92C467.727 138.711 468.325 138.278 468.739 137.69C469.111 137.181 469.352 136.588 469.443 135.965C469.534 135.341 469.47 134.704 469.259 134.11C468.738 132.636 467.738 131.38 466.419 130.54C464.039 128.84 461.439 128.783 458.619 130.37C458.334 130.552 458.019 130.68 457.689 130.75C457.517 130.762 457.345 130.74 457.182 130.685C457.019 130.63 456.868 130.544 456.739 130.43L453.339 128.01C453.091 127.842 452.919 127.583 452.859 127.29C452.83 127.14 452.834 126.986 452.87 126.837C452.906 126.689 452.974 126.55 453.069 126.43C453.861 125.407 454.891 124.594 456.069 124.06C457.422 123.434 458.874 123.052 460.359 122.93C461.986 122.797 463.623 122.926 465.209 123.31C466.932 123.699 468.56 124.426 469.999 125.45Z" fill="#BA68C8"/>
<g opacity="0.6">
<path d="M454.719 150.54C455.016 150.757 455.217 151.081 455.278 151.443C455.34 151.805 455.258 152.177 455.049 152.48L452.409 156.18C452.192 156.477 451.868 156.678 451.506 156.739C451.144 156.801 450.772 156.719 450.469 156.51L446.849 153.94C446.7 153.836 446.573 153.702 446.477 153.547C446.381 153.393 446.317 153.22 446.289 153.04C446.236 152.69 446.319 152.332 446.519 152.04L449.159 148.33C449.373 148.032 449.697 147.831 450.059 147.77C450.411 147.717 450.769 147.803 451.059 148.01L454.719 150.54ZM469.999 125.45C471.304 126.371 472.47 127.476 473.459 128.73C474.415 129.924 475.149 131.278 475.629 132.73C476.087 134.118 476.241 135.588 476.079 137.04C475.891 138.587 475.306 140.058 474.379 141.31C473.688 142.323 472.805 143.189 471.779 143.86C470.867 144.426 469.876 144.854 468.839 145.13C467.833 145.398 466.806 145.579 465.769 145.67L462.829 145.92C461.951 146.001 461.081 146.154 460.229 146.38C459.466 146.582 458.774 146.99 458.229 147.56C457.967 147.815 457.643 147.998 457.289 148.09C457.117 148.131 456.938 148.133 456.766 148.097C456.593 148.06 456.43 147.986 456.289 147.88L453.089 145.61C452.784 145.39 452.576 145.06 452.509 144.69C452.471 144.515 452.473 144.334 452.517 144.161C452.56 143.987 452.643 143.826 452.759 143.69C453.503 142.714 454.439 141.901 455.509 141.3C456.472 140.772 457.501 140.375 458.569 140.12C459.594 139.872 460.637 139.712 461.689 139.64C462.689 139.58 463.689 139.5 464.609 139.41C465.435 139.339 466.25 139.174 467.039 138.92C467.727 138.711 468.325 138.278 468.739 137.69C469.111 137.181 469.352 136.588 469.443 135.965C469.534 135.341 469.47 134.704 469.259 134.11C468.738 132.636 467.738 131.38 466.419 130.54C464.039 128.84 461.439 128.783 458.619 130.37C458.334 130.552 458.019 130.68 457.689 130.75C457.517 130.762 457.345 130.74 457.182 130.685C457.019 130.63 456.868 130.544 456.739 130.43L453.339 128.01C453.091 127.842 452.919 127.583 452.859 127.29C452.83 127.14 452.834 126.986 452.87 126.837C452.906 126.689 452.974 126.55 453.069 126.43C453.861 125.407 454.891 124.594 456.069 124.06C457.422 123.434 458.874 123.052 460.359 122.93C461.986 122.797 463.623 122.926 465.209 123.31C466.932 123.699 468.56 124.426 469.999 125.45Z" fill="white"/>
</g>
<path d="M132.486 348.52C132.386 345.52 134.546 316.2 134.546 316.2L120.266 326.56C123.196 344.04 123.826 348.17 123.876 351.03C123.815 351.268 123.788 351.514 123.796 351.76C123.796 355.16 127.646 356.99 130.636 359.26C133.177 361.247 135.883 363.014 138.726 364.54C140.896 365.63 145.316 365.73 145.856 364.33C142.216 361.55 136.926 357.39 134.026 354.22C132.646 352.7 132.596 351.5 132.486 348.52Z" fill="#FFA8A7"/>
<path d="M152.065 368C152.227 368.467 152.255 368.97 152.148 369.452C152.04 369.934 151.8 370.377 151.455 370.73C148.832 372.621 145.568 373.398 142.375 372.89C137.835 372.3 135.375 371.01 133.565 369.49C131.755 367.97 129.205 365.83 127.145 365.38C125.507 365.068 123.949 364.429 122.565 363.5C121.955 362.91 122.035 360.29 122.035 360.29L152.065 368Z" fill="#263238"/>
<path d="M123.844 350.2C123.676 350.205 123.515 350.269 123.389 350.38C123.263 350.492 123.18 350.644 123.154 350.81C123.014 351.53 122.864 353.63 122.564 354.81C122.1 356.896 121.952 359.04 122.124 361.17C122.374 362.52 125.474 363.45 127.464 364.17C129.805 365.189 131.976 366.558 133.904 368.23C136.687 370.311 140.008 371.55 143.474 371.8C146.974 371.8 150.914 370.64 151.824 369.02C152.934 367.02 152.064 365.85 146.874 363.44C145.874 362.99 142.444 360.94 141.264 360.2C138.084 358.2 134.934 355.41 133.464 351.87C133.346 351.437 133.085 351.057 132.724 350.79C132.409 350.654 132.06 350.619 131.724 350.69C130.858 350.816 130.015 351.072 129.224 351.45C128.534 351.78 127.544 352.17 127.554 353.06C127.576 353.368 127.643 353.672 127.754 353.96C127.814 354.15 127.864 354.39 127.754 354.5C127.644 354.61 127.404 354.5 127.264 354.36C126.755 353.839 126.29 353.277 125.874 352.68C125.628 352.374 125.35 352.096 125.044 351.85C124.738 351.676 124.444 351.483 124.164 351.27C123.784 351 123.864 350.62 123.844 350.2Z" fill="#455A64"/>
<path d="M133.9 368.28C132.99 367.54 132.03 366.81 131.07 366.17C131.07 366.17 137.17 369.88 139.63 368.17C140.087 367.88 140.421 367.433 140.568 366.913C140.716 366.392 140.667 365.836 140.43 365.35C140.43 364.93 144.31 363.12 145.85 362.94C146.28 363.18 146.64 363.37 146.85 363.47C152.04 365.88 152.91 367.04 151.8 369.05C150.89 370.67 148.04 371.94 143.52 371.94C140.58 372 136 370 133.9 368.28Z" fill="#37474F"/>
<path d="M140 364.14C143.23 365.43 141.85 366.03 140.95 366.14C140.05 366.25 134.62 363.14 131.3 360.48C127.98 357.82 125.67 354.75 124.39 353.75C123.91 353.38 123.39 352.92 122.93 352.49C123.02 351.78 123.09 351.13 123.15 350.79C123.175 350.624 123.258 350.472 123.384 350.36C123.51 350.249 123.672 350.185 123.84 350.18C123.84 350.6 123.78 350.99 124.1 351.3C124.38 351.513 124.674 351.706 124.98 351.88C125.286 352.126 125.564 352.404 125.81 352.71C126.226 353.307 126.691 353.869 127.2 354.39C130.798 358.435 135.145 361.745 140 364.14Z" fill="#263238"/>
<path d="M140.726 365.69C140.652 365.687 140.581 365.659 140.526 365.61C140.493 365.585 140.466 365.553 140.446 365.517C140.426 365.481 140.413 365.441 140.408 365.401C140.404 365.36 140.407 365.318 140.419 365.278C140.43 365.239 140.45 365.202 140.476 365.17C141.236 364.38 142.157 363.763 143.177 363.359C144.196 362.955 145.291 362.775 146.386 362.83C146.472 362.84 146.55 362.883 146.604 362.951C146.658 363.018 146.684 363.104 146.676 363.19C146.666 363.273 146.623 363.349 146.558 363.402C146.492 363.454 146.409 363.478 146.326 363.47C145.337 363.429 144.351 363.595 143.429 363.956C142.508 364.318 141.673 364.867 140.976 365.57C140.945 365.607 140.907 365.637 140.864 365.658C140.821 365.678 140.774 365.689 140.726 365.69Z" fill="#F5F5F5"/>
<path d="M137.916 364C137.84 364.003 137.765 363.978 137.706 363.93C137.649 363.869 137.617 363.789 137.617 363.705C137.617 363.622 137.649 363.541 137.706 363.48C138.468 362.693 139.39 362.078 140.409 361.676C141.428 361.274 142.522 361.095 143.616 361.15C143.701 361.159 143.778 361.202 143.832 361.269C143.885 361.335 143.91 361.42 143.901 361.505C143.892 361.59 143.849 361.668 143.782 361.721C143.716 361.775 143.631 361.799 143.546 361.79C142.557 361.747 141.57 361.911 140.648 362.273C139.727 362.635 138.891 363.185 138.196 363.89C138.162 363.93 138.118 363.961 138.07 363.98C138.021 363.999 137.968 364.006 137.916 364Z" fill="#F5F5F5"/>
<path d="M135.089 362.31C135.017 362.311 134.946 362.286 134.889 362.24C134.83 362.18 134.797 362.099 134.797 362.015C134.797 361.931 134.83 361.85 134.889 361.79C135.652 361.004 136.574 360.389 137.593 359.987C138.612 359.585 139.705 359.406 140.799 359.46C140.841 359.464 140.882 359.476 140.92 359.495C140.957 359.515 140.99 359.542 141.017 359.575C141.044 359.607 141.064 359.645 141.077 359.685C141.089 359.725 141.093 359.768 141.089 359.81C141.086 359.852 141.074 359.893 141.054 359.93C141.034 359.968 141.007 360.001 140.975 360.028C140.942 360.055 140.905 360.075 140.864 360.087C140.824 360.1 140.781 360.104 140.739 360.1C139.75 360.056 138.763 360.221 137.842 360.583C136.92 360.944 136.085 361.495 135.389 362.2C135.352 362.241 135.305 362.273 135.253 362.292C135.201 362.312 135.145 362.318 135.089 362.31Z" fill="#F5F5F5"/>
<path d="M132.484 360.44C132.411 360.441 132.341 360.416 132.284 360.37C132.254 360.341 132.229 360.306 132.213 360.267C132.196 360.229 132.188 360.187 132.188 360.145C132.188 360.103 132.196 360.061 132.213 360.023C132.229 359.984 132.254 359.949 132.284 359.92C133.046 359.132 133.967 358.516 134.987 358.114C136.006 357.712 137.1 357.534 138.194 357.59C138.277 357.6 138.353 357.642 138.406 357.708C138.458 357.773 138.483 357.857 138.474 357.94C138.464 358.023 138.422 358.099 138.356 358.152C138.291 358.204 138.208 358.228 138.124 358.22C137.136 358.181 136.15 358.347 135.229 358.709C134.308 359.07 133.472 359.619 132.774 360.32C132.74 360.363 132.696 360.397 132.645 360.418C132.594 360.439 132.539 360.447 132.484 360.44Z" fill="#F5F5F5"/>
<path d="M129.933 358.57C129.861 358.567 129.791 358.542 129.733 358.5C129.674 358.44 129.641 358.359 129.641 358.275C129.641 358.191 129.674 358.11 129.733 358.05C130.558 357.192 131.567 356.533 132.685 356.124C133.803 355.715 134.999 355.567 136.183 355.69C136.225 355.692 136.267 355.703 136.304 355.723C136.342 355.742 136.375 355.769 136.402 355.802C136.428 355.835 136.447 355.874 136.458 355.915C136.468 355.956 136.47 355.998 136.463 356.04C136.453 356.123 136.411 356.199 136.345 356.252C136.28 356.304 136.196 356.329 136.113 356.32C135.037 356.214 133.951 356.349 132.934 356.716C131.916 357.083 130.994 357.672 130.233 358.44C130.198 358.485 130.152 358.521 130.1 358.544C130.047 358.566 129.99 358.575 129.933 358.57Z" fill="#F5F5F5"/>
<path d="M105.582 329.55L91.1719 329.29C91.3819 338.91 92.9119 349.58 93.1719 358.6C93.1719 360.3 93.1719 371.8 93.7719 375.3C94.7719 380.55 100.972 379.84 101.302 376.7C101.632 373.56 100.902 360.13 100.922 358.7C100.862 352.92 103.572 343.15 105.002 332.76C105.062 332.29 105.512 330.05 105.582 329.55Z" fill="#FFA8A7"/>
<path d="M103.64 378.88C103.908 381.287 103.564 383.722 102.64 385.96C102.183 386.849 101.445 387.562 100.541 387.989C99.6365 388.416 98.6168 388.532 97.6399 388.32C95.5099 388.01 92.6999 386.87 91.8399 384.32C91.0255 381.971 90.7387 379.472 90.9999 377L103.64 378.88Z" fill="#263238"/>
<path d="M93.1301 357.5C92.2801 357.65 92.4401 361.8 92.3601 365.97C92.2701 370.45 91.1401 372.41 91.0301 376.08C90.9001 380.28 91.3101 382.08 93.0301 384.46C94.7501 386.84 100.12 388.76 102.29 384.92C104.06 381.79 103.82 378.54 103.21 374.42C102.6 370.3 102.12 367.18 101.96 363.92C101.8 360.66 101.73 357.77 100.96 357.5C100.96 357.96 100.96 358.55 100.96 359C100.96 359.45 101.03 361 100.55 361.1C100.476 360.714 100.433 360.323 100.42 359.93C100.442 359.567 100.324 359.209 100.09 358.93C99.8008 358.717 99.4495 358.604 99.0901 358.61C98.2335 358.513 97.3721 358.467 96.5101 358.47C96.0801 358.47 95.6401 358.47 95.2201 358.54C94.8506 358.568 94.4887 358.659 94.1501 358.81C94.0504 358.853 93.9606 358.915 93.8866 358.995C93.8126 359.074 93.7559 359.168 93.7201 359.27C93.6901 359.429 93.6901 359.591 93.7201 359.75C93.7551 360.036 93.7551 360.324 93.7201 360.61C93.7201 360.74 93.6301 360.9 93.5001 360.88C93.3701 360.86 93.3501 360.74 93.3401 360.64C93.2801 360.14 93.3401 359.77 93.2801 359.19C93.2801 358.92 93.2801 358.55 93.2801 358.28C93.2801 358.01 93.1401 357.77 93.1301 357.5Z" fill="#455A64"/>
<path d="M91.1041 374.88C91.1041 375.49 90.9741 379.5 92.1041 380.1C93.2341 380.7 93.6741 377.58 93.6741 377.58C93.6741 377.58 96.3241 376.47 100.484 377.81C100.344 378.47 101.164 380.53 102.214 379.97C103.264 379.41 103.214 374.84 103.214 374.78C103.784 378.78 103.964 381.88 102.214 384.92C100.044 388.76 94.6541 386.82 92.9541 384.46C91.2541 382.1 90.8441 380.28 90.9541 376.08C91.0041 375.66 91.0741 375.27 91.1041 374.88Z" fill="#37474F"/>
<path d="M93.9992 377.81C94.1292 379.31 92.6092 378.96 92.3292 376.81C92.0492 374.66 92.7092 369.57 92.3292 365.93C92.4092 361.76 92.2492 357.61 93.0992 357.46C93.0943 357.51 93.0943 357.56 93.0992 357.61L93.1992 359.72C93.1795 360.02 93.1795 360.32 93.1992 360.62C93.4792 363.68 93.6492 369.62 93.6592 372.44C93.6769 374.235 93.7903 376.027 93.9992 377.81Z" fill="#263238"/>
<path d="M100.005 377.81C100.201 376.04 100.298 374.261 100.295 372.48C100.295 369.68 100.475 363.81 100.755 360.73C100.863 360.16 100.907 359.58 100.885 359C100.885 358.58 100.885 358 100.885 357.6C100.885 357.6 100.885 357.54 100.885 357.5C101.445 357.71 101.645 359.36 101.765 361.44C101.765 362.65 101.765 364.15 101.655 365.97C101.275 369.61 101.935 374.77 101.655 376.88C101.375 378.99 99.9049 379.31 100.005 377.81Z" fill="#263238"/>
<path d="M100.591 377.92H100.481C98.3205 377.174 95.9721 377.174 93.8113 377.92C93.7719 377.935 93.7299 377.942 93.6877 377.941C93.6456 377.94 93.604 377.931 93.5655 377.914C93.5269 377.896 93.4922 377.872 93.4631 377.841C93.4341 377.811 93.4114 377.774 93.3963 377.735C93.3812 377.696 93.374 377.654 93.3751 377.612C93.3762 377.569 93.3857 377.528 93.4028 377.489C93.42 377.451 93.4446 377.416 93.4752 377.387C93.5059 377.358 93.5419 377.335 93.5813 377.32C95.8867 376.497 98.4059 376.497 100.711 377.32C100.751 377.334 100.787 377.357 100.817 377.385C100.848 377.414 100.872 377.448 100.889 377.487C100.906 377.525 100.915 377.566 100.915 377.608C100.915 377.65 100.907 377.691 100.891 377.73C100.867 377.789 100.825 377.838 100.771 377.872C100.718 377.906 100.655 377.923 100.591 377.92Z" fill="#F5F5F5"/>
<path d="M101.006 374.6C100.97 374.609 100.932 374.609 100.896 374.6C98.4663 373.846 95.8652 373.846 93.4358 374.6C93.3957 374.614 93.3533 374.62 93.3109 374.618C93.2685 374.615 93.227 374.604 93.1889 374.586C93.1507 374.567 93.1166 374.541 93.0886 374.509C93.0606 374.477 93.0393 374.44 93.0258 374.4C93.0118 374.361 93.0058 374.319 93.0084 374.277C93.0109 374.235 93.0219 374.195 93.0405 374.157C93.0592 374.12 93.0853 374.087 93.1171 374.06C93.1489 374.033 93.1859 374.012 93.2258 374C95.7923 373.183 98.5493 373.183 101.116 374C101.186 374.026 101.245 374.076 101.282 374.141C101.319 374.206 101.333 374.282 101.319 374.356C101.306 374.43 101.268 374.497 101.21 374.545C101.153 374.593 101.081 374.62 101.006 374.62V374.6Z" fill="#F5F5F5"/>
<path d="M93.3015 371.46C93.2403 371.458 93.1807 371.44 93.1295 371.406C93.0783 371.373 93.0374 371.325 93.0115 371.27C92.9776 371.193 92.9754 371.106 93.0053 371.027C93.0353 370.949 93.095 370.885 93.1715 370.85C95.6976 369.857 98.503 369.839 101.041 370.8C101.081 370.814 101.117 370.836 101.147 370.865C101.178 370.894 101.202 370.928 101.219 370.967C101.236 371.005 101.245 371.046 101.245 371.088C101.246 371.13 101.238 371.171 101.221 371.21C101.19 371.288 101.13 371.35 101.053 371.384C100.977 371.417 100.89 371.42 100.811 371.39C100.811 371.39 96.8915 369.85 93.4415 371.39C93.4007 371.424 93.3528 371.447 93.3015 371.46Z" fill="#F5F5F5"/>
<path d="M93.2329 368.52C93.1725 368.52 93.1132 368.504 93.0619 368.472C93.0106 368.44 92.9693 368.394 92.9429 368.34C92.9084 368.264 92.9047 368.178 92.9327 368.1C92.9607 368.021 93.0182 367.957 93.0929 367.92C94.3466 367.349 95.7058 367.045 97.0834 367.03C98.4611 367.014 99.8267 367.287 101.093 367.83C101.131 367.847 101.165 367.872 101.193 367.902C101.221 367.933 101.243 367.969 101.257 368.008C101.271 368.047 101.277 368.089 101.275 368.131C101.272 368.172 101.261 368.213 101.243 368.25C101.226 368.288 101.201 368.322 101.171 368.35C101.14 368.378 101.104 368.4 101.065 368.414C101.026 368.428 100.984 368.434 100.942 368.432C100.901 368.429 100.86 368.418 100.823 368.4C99.6349 367.908 98.3594 367.662 97.0737 367.678C95.788 367.693 94.5187 367.97 93.3429 368.49C93.3081 368.506 93.271 368.516 93.2329 368.52Z" fill="#F5F5F5"/>
<path d="M93.1607 365.23C93.0875 365.231 93.0161 365.207 92.9585 365.162C92.9008 365.117 92.8604 365.053 92.844 364.982C92.8277 364.91 92.8363 364.835 92.8684 364.77C92.9006 364.704 92.9543 364.651 93.0207 364.62C96.8307 362.74 100.941 364.54 101.111 364.62C101.151 364.635 101.187 364.658 101.217 364.688C101.247 364.718 101.27 364.754 101.285 364.794C101.3 364.834 101.307 364.876 101.304 364.919C101.302 364.961 101.29 365.002 101.271 365.04C101.236 365.117 101.172 365.176 101.094 365.206C101.015 365.236 100.928 365.234 100.851 365.2C100.851 365.2 96.8507 363.45 93.3107 365.2C93.2645 365.224 93.2126 365.234 93.1607 365.23Z" fill="#F5F5F5"/>
<path d="M95.9167 236C90.8367 250.07 91.7267 258.9 92.5967 273.65C93.3967 287.17 94.6667 299.08 94.6667 299.08C94.4667 301.48 91.1267 306.16 90.6667 316.76C90.5193 324.224 90.8533 331.689 91.6667 339.11C91.6667 339.11 98.3167 341.54 103.937 339.11C103.937 339.11 109.687 313.72 111.257 301.31C112.617 290.48 114.997 276.64 114.997 276.64L119.997 301.26C119.019 304.569 118.518 308 118.507 311.45C118.507 317.24 121.197 333.34 121.197 333.34C121.197 333.34 128.647 335.75 133.367 331.56C133.367 331.56 135.237 308.39 135.897 299.56C136.777 287.78 135.497 255.49 132.667 238.96L95.9167 236Z" fill="#455A64"/>
<path d="M115.055 276.6L117.135 258.08C117.135 258.08 126.445 256.84 130.665 252.87C129.454 254.764 127.84 256.366 125.939 257.564C124.038 258.762 121.895 259.526 119.665 259.8L116.665 277.04L120.065 301.22L115.055 276.6Z" fill="#37474F"/>
<path d="M138.072 222.27C133.542 217.61 125.362 207.07 125.362 207.07L120.742 191.07C121.775 191.124 122.81 191.124 123.842 191.07C128.842 191.4 130.312 191.83 133.422 195.23C135.892 197.94 145.312 210.8 148.582 215.13L157.272 204.06C159.362 200.91 159.022 197.38 160.102 194.81C161.182 192.24 162.932 191.11 164.332 188.81C165.732 186.51 166.062 184.97 167.212 186.16C168.362 187.35 167.032 190.55 166.862 191.28C166.692 192.01 164.932 194.18 167.862 193.05C170.792 191.92 175.312 186.57 176.472 185.48C177.632 184.39 178.252 186.08 177.992 187.42C177.732 188.76 178.992 191.78 178.532 193.99C178.246 196.213 177.14 198.249 175.432 199.7C173.322 201.82 168.162 204.43 166.142 207.22C164.122 210.01 159.812 218.68 157.142 223.9C153.792 230.54 150.942 232.73 147.142 230.49C143.342 228.25 139.742 224 138.072 222.27Z" fill="#FFA8A7"/>
<path d="M122.216 190.9C124.773 190.645 127.354 190.987 129.756 191.9C132.466 193.12 134.306 195.74 136.956 199.29C139.606 202.84 144.336 209.05 144.336 209.05C144.336 209.05 143.056 214.44 134.616 219.28L120.836 205.09L122.216 190.9Z" fill="#37474F"/>
<path d="M148.584 215.12C146.935 216.675 145.831 218.719 145.434 220.95C145.434 220.95 144.434 217.74 147.844 214.13L148.584 215.12Z" fill="#F28F8F"/>
<path d="M132.193 219.31C138.343 214.25 136.313 207.66 134.073 203.22C129.583 194.35 124.913 190.86 122.963 190.89L110.733 191.01C104.893 191.81 100.373 191.41 98.9625 191.74C95.3625 192.59 95.2825 195.55 95.1425 199.38C94.9925 203.58 92.8425 202.87 93.9325 209.81C95.2181 212.39 96.3468 215.044 97.3125 217.76C97.9725 220.16 99.8325 223.98 98.8425 227.86C98.4625 229.36 97.4425 230.86 95.9125 234.97C94.1777 239.59 92.8885 244.365 92.0625 249.23C92.0625 249.23 95.6325 248.4 99.6925 244.08C99.6925 244.08 105.242 251.51 118.592 250.76C132.442 249.98 133.663 242.76 133.663 242.76L131.542 229.76C131.862 224.51 132.003 222.61 132.193 219.31Z" fill="#BA68C8"/>
<path opacity="0.1" d="M124.206 218C124.206 218 119.206 222 113.336 220.08C111.701 219.59 110.219 218.689 109.03 217.464C107.841 216.239 106.986 214.729 106.546 213.08C106.546 213.08 106.046 219.73 113.426 221.87C115.4 222.469 117.515 222.416 119.457 221.719C121.398 221.022 123.064 219.718 124.206 218Z" fill="black"/>
<path d="M89.1946 185.18C87.3846 183.86 77.6346 196.91 82.1946 200.18C86.7546 203.45 91.6146 194.18 90.6346 189.8C89.6546 185.42 89.1946 185.18 89.1946 185.18Z" fill="#37474F"/>
<path d="M80.343 178.7C82.783 175.32 84.443 172.77 86.673 169.87C87.933 168.22 88.743 167.05 89.953 165.36C90.793 164.2 91.283 163.22 92.223 162.85C93.2724 162.388 94.2103 161.706 94.973 160.85C95.4401 160.309 95.871 159.738 96.263 159.14C97.6725 157.188 99.3566 155.45 101.263 153.98C103.263 152.43 105.453 151.23 107.493 149.75C108.703 148.87 110.003 147.42 108.493 146.11C108.024 145.731 107.467 145.477 106.873 145.37C103.233 144.64 100.083 145.95 96.543 146.92C95.0037 147.34 93.4992 147.878 92.043 148.53C91.3201 148.823 90.6458 149.225 90.043 149.72C89.2056 150.595 88.5287 151.61 88.043 152.72C86.493 155.57 83.223 158.11 80.933 160.34C78.243 162.96 75.843 165.34 72.773 168.25C70.013 170.85 67.303 173.25 64.773 176.09C62.683 178.43 63.493 180.23 63.773 180.84C65.573 184.38 67.533 185.63 69.893 187.84C70.673 188.56 71.463 189.27 72.253 189.98C75.313 192.74 78.373 195.32 81.553 197.98C84.953 200.78 86.353 202.14 89.383 204.86C91.2951 206.616 92.8886 208.69 94.093 210.99C99.343 211.86 104.503 203.83 100.003 194.44C99.2629 192.921 98.1435 191.619 96.753 190.66C91.213 186.71 80.343 178.7 80.343 178.7Z" fill="#FFA8A7"/>
<path d="M80.34 178.7C78.7022 180.779 76.5016 182.345 74 183.21C74 183.21 77.35 184.01 81.85 179.82L80.34 178.7Z" fill="#F28F8F"/>
<path d="M99.3844 191.66C98.1544 190.81 95.1644 189 89.1944 185.18C89.1944 185.18 90.1144 187.11 88.6644 191.96C87.2144 196.81 84.1544 199.88 82.2344 200.23C82.2344 200.23 85.5744 202.87 88.6544 205.85C91.7344 208.83 94.2644 210.94 96.0444 214.4C96.0444 214.4 100.444 213.27 101.444 205.81C102.144 200.58 101.724 194.44 99.3844 191.66Z" fill="#455A64"/>
<path d="M132.78 167.64C133.659 165.782 134.046 163.73 133.904 161.679C133.762 159.629 133.096 157.649 131.97 155.93C128.18 150.54 121.79 147.93 114.73 148.01H112.54C103.01 148.17 94.3497 156.35 94.1797 165.56C94.1797 172.04 94.1797 178.03 97.7497 182.45C101.04 186.56 106.17 187.91 110.5 188.57C118.78 189.83 128.08 188.87 131.84 183.23C131.84 183.23 126.84 184.23 127.47 179.05C127.56 178.23 126.78 177.33 125.41 176.4C126.369 174.738 127.499 173.179 128.78 171.75C130.19 170.34 131.82 169.55 132.78 167.64Z" fill="#263238"/>
<path d="M130.316 172.37C130.266 182.02 127.176 184.45 125.626 185.17C124.076 185.89 121.036 185.51 118.086 185.08L118.186 190.87C118.186 190.87 121.636 194.36 121.436 197.02C121.236 199.68 116.156 200.02 112.306 197.53C110.185 196.125 108.262 194.444 106.586 192.53C106.266 192.16 106.086 191.689 106.076 191.2L105.836 177.59C105.836 177.59 104.256 179.32 101.376 177.42C100.754 177.04 100.218 176.534 99.8012 175.936C99.3849 175.337 99.0975 174.658 98.9574 173.943C98.8173 173.227 98.8275 172.49 98.9874 171.779C99.1472 171.067 99.4533 170.397 99.8861 169.81C100.293 169.414 100.782 169.113 101.318 168.927C101.854 168.74 102.424 168.674 102.989 168.732C103.553 168.79 104.098 168.972 104.585 169.263C105.072 169.555 105.488 169.95 105.806 170.42C106.686 172.06 106.606 173.22 107.806 173.03C109.006 172.84 109.056 171.54 109.136 170.61C109.216 169.68 109.136 169.38 109.256 168.16C112.106 167.55 115.056 163.58 115.386 160.68C117.317 161.629 119.445 162.109 121.596 162.08C124.786 161.86 126.436 161.22 128.006 158.92C128.38 159.446 128.68 160.022 128.896 160.63C129.34 161.861 129.675 163.13 129.896 164.42C130.252 167.054 130.393 169.713 130.316 172.37Z" fill="#FFA8A7"/>
<path d="M118.083 185.08C114.973 184.72 108.563 183 107.523 180.5C107.944 181.769 108.743 182.879 109.813 183.68C111.753 185.28 118.113 187.01 118.113 187.01L118.083 185.08Z" fill="#F28F8F"/>
<path d="M121.212 179.88C121.217 180.132 121.149 180.379 121.013 180.591C120.878 180.804 120.683 180.971 120.453 181.072C120.223 181.174 119.968 181.204 119.72 181.16C119.472 181.116 119.243 181 119.062 180.825C118.88 180.651 118.755 180.427 118.701 180.181C118.647 179.935 118.668 179.679 118.76 179.445C118.852 179.211 119.012 179.009 119.218 178.866C119.425 178.723 119.67 178.644 119.922 178.64C120.257 178.635 120.58 178.762 120.822 178.994C121.064 179.227 121.204 179.545 121.212 179.88Z" fill="#B16668"/>
<path d="M119.585 170.38C119.601 170.558 119.582 170.736 119.529 170.907C119.476 171.077 119.39 171.235 119.276 171.371C119.161 171.508 119.021 171.621 118.863 171.703C118.705 171.785 118.532 171.835 118.355 171.85C118.081 171.879 117.805 171.826 117.562 171.697C117.319 171.569 117.12 171.37 116.991 171.128C116.861 170.885 116.807 170.609 116.835 170.336C116.864 170.062 116.973 169.803 117.15 169.592C117.326 169.381 117.562 169.228 117.826 169.152C118.09 169.076 118.371 169.08 118.633 169.165C118.895 169.25 119.125 169.41 119.295 169.627C119.464 169.844 119.565 170.106 119.585 170.38Z" fill="#263238"/>
<path d="M128.606 169.81C128.631 170.136 128.526 170.458 128.315 170.707C128.103 170.956 127.802 171.112 127.476 171.14C127.312 171.16 127.145 171.145 126.988 171.095C126.83 171.045 126.685 170.961 126.563 170.85C126.441 170.739 126.344 170.603 126.278 170.451C126.213 170.299 126.182 170.135 126.186 169.97C126.169 169.808 126.186 169.645 126.233 169.489C126.281 169.333 126.359 169.189 126.464 169.064C126.568 168.939 126.696 168.836 126.841 168.762C126.986 168.687 127.144 168.642 127.306 168.63C127.634 168.616 127.955 168.733 128.198 168.953C128.441 169.174 128.588 169.482 128.606 169.81Z" fill="#263238"/>
<path d="M122.375 168.56L123.335 176.62L127.465 174.9L122.375 168.56Z" fill="#F28F8F"/>
<path d="M114.766 166.9L117.166 164.62C117.464 164.953 117.624 165.387 117.611 165.834C117.598 166.281 117.413 166.706 117.096 167.02C116.937 167.17 116.75 167.287 116.545 167.362C116.341 167.438 116.123 167.471 115.905 167.46C115.687 167.449 115.474 167.393 115.278 167.297C115.082 167.201 114.908 167.066 114.766 166.9Z" fill="#263238"/>
<path d="M126.775 163.88L129.435 165.88C129.312 166.06 129.154 166.214 128.97 166.331C128.786 166.449 128.58 166.527 128.364 166.562C128.149 166.596 127.929 166.586 127.717 166.533C127.506 166.479 127.308 166.383 127.135 166.25C126.786 165.973 126.556 165.575 126.489 165.136C126.422 164.696 126.524 164.247 126.775 163.88Z" fill="#263238"/>
<path d="M88.4321 90.6301C90.3496 90.2644 92.3097 90.1769 94.2521 90.3701C96.1084 90.5329 97.9205 91.0274 99.6021 91.8301C101.216 92.6003 102.642 93.7127 103.782 95.0901C104.984 96.5642 105.784 98.3248 106.102 100.2C106.402 101.672 106.402 103.189 106.102 104.66C105.833 105.941 105.375 107.174 104.742 108.32C104.128 109.435 103.415 110.492 102.612 111.48C101.812 112.48 101.052 113.4 100.342 114.29C99.6631 115.128 99.0607 116.025 98.5421 116.97C98.0655 117.809 97.8334 118.766 97.8721 119.73C97.878 120.179 97.7641 120.62 97.5421 121.01C97.4375 121.194 97.2937 121.353 97.1209 121.476C96.9481 121.599 96.7506 121.682 96.5421 121.72L91.8321 122.61C91.6084 122.655 91.378 122.654 91.1547 122.607C90.9314 122.561 90.7196 122.47 90.5321 122.34C90.337 122.228 90.1722 122.071 90.0519 121.881C89.9317 121.691 89.8597 121.474 89.8421 121.25C89.6125 119.771 89.6874 118.26 90.0621 116.81C90.4177 115.518 90.9387 114.278 91.6121 113.12C92.2632 112.017 93.0094 110.973 93.8421 110C94.6721 109 95.4221 108.1 96.1121 107.22C96.7465 106.43 97.2962 105.575 97.7521 104.67C98.1444 103.885 98.2673 102.992 98.1021 102.13C97.9693 101.37 97.6531 100.654 97.1808 100.044C96.7085 99.4344 96.0946 98.9489 95.3921 98.6301C93.6498 97.8382 91.6927 97.6517 89.8321 98.1001C86.3255 98.7667 84.0755 101.013 83.0821 104.84C82.9947 105.243 82.8392 105.629 82.6221 105.98C82.3448 106.301 81.9542 106.501 81.5321 106.54L76.5321 107.49C76.1868 107.552 75.8309 107.484 75.5321 107.3C75.3751 107.196 75.2415 107.061 75.1399 106.902C75.0383 106.744 74.9709 106.566 74.9421 106.38C74.7262 104.803 74.8978 103.196 75.4421 101.7C76.0083 99.9719 76.8749 98.3571 78.0021 96.9301C79.2661 95.3675 80.7717 94.0171 82.4621 92.9301C84.284 91.7831 86.3117 91.0019 88.4321 90.6301ZM97.5621 125.38C98.0068 125.303 98.4639 125.402 98.8371 125.656C99.2102 125.91 99.4702 126.298 99.5621 126.74L100.562 132.2C100.608 132.419 100.607 132.645 100.561 132.863C100.514 133.082 100.423 133.289 100.292 133.47C100.169 133.656 100.01 133.816 99.825 133.939C99.6395 134.063 99.4311 134.148 99.2121 134.19L93.8821 135.19C93.6617 135.236 93.4342 135.236 93.2139 135.189C92.9936 135.143 92.7853 135.051 92.6021 134.92C92.4161 134.797 92.2566 134.638 92.1329 134.453C92.0093 134.267 91.924 134.059 91.8821 133.84L90.8821 128.38C90.8403 128.16 90.8436 127.935 90.8917 127.716C90.9399 127.498 91.0319 127.292 91.1621 127.11C91.2819 126.921 91.4398 126.76 91.6259 126.636C91.8119 126.512 92.0218 126.428 92.2421 126.39L97.5621 125.38Z" fill="#BA68C8"/>
<path d="M139.252 113.16C140.432 113.814 141.51 114.636 142.452 115.6C143.369 116.503 144.111 117.568 144.642 118.74C145.152 119.861 145.415 121.079 145.412 122.31C145.411 123.623 145.066 124.912 144.412 126.05C143.923 126.962 143.26 127.77 142.462 128.43C141.748 128.985 140.956 129.433 140.112 129.76C139.292 130.08 138.446 130.328 137.582 130.5L135.142 130.98C134.41 131.121 133.694 131.332 133.002 131.61C132.38 131.841 131.836 132.243 131.432 132.77C131.236 133.012 130.976 133.196 130.682 133.3C130.544 133.352 130.396 133.372 130.25 133.36C130.103 133.348 129.96 133.304 129.832 133.23L126.942 131.61C126.661 131.456 126.453 131.197 126.362 130.89C126.313 130.744 126.299 130.589 126.319 130.436C126.34 130.283 126.396 130.138 126.482 130.01C127.015 129.126 127.723 128.36 128.562 127.76C129.323 127.228 130.15 126.798 131.022 126.48C131.859 126.182 132.718 125.955 133.592 125.8C134.462 125.65 135.272 125.5 136.032 125.34C136.718 125.197 137.388 124.986 138.032 124.71C138.588 124.465 139.051 124.048 139.352 123.52C139.615 123.056 139.761 122.535 139.779 122.002C139.796 121.469 139.684 120.94 139.452 120.46C138.881 119.269 137.927 118.304 136.742 117.72C135.722 117.13 134.545 116.87 133.371 116.973C132.197 117.077 131.083 117.54 130.182 118.3C129.959 118.481 129.705 118.62 129.432 118.71C129.146 118.758 128.852 118.693 128.612 118.53L125.532 116.81C125.314 116.687 125.15 116.488 125.072 116.25C125.033 116.126 125.021 115.995 125.037 115.865C125.052 115.736 125.095 115.612 125.162 115.5C125.746 114.57 126.545 113.795 127.492 113.24C128.57 112.589 129.756 112.136 130.992 111.9C132.346 111.635 133.734 111.591 135.102 111.77C136.562 111.962 137.971 112.434 139.252 113.16ZM128.712 135.61C128.848 135.685 128.968 135.787 129.064 135.909C129.16 136.031 129.231 136.17 129.272 136.32C129.317 136.467 129.331 136.622 129.313 136.775C129.296 136.928 129.248 137.076 129.172 137.21L127.302 140.56C127.151 140.833 126.897 141.034 126.597 141.12C126.297 141.206 125.976 141.17 125.702 141.02L122.432 139.19C122.295 139.119 122.174 139.018 122.079 138.896C121.984 138.773 121.917 138.631 121.882 138.48C121.835 138.334 121.818 138.179 121.834 138.026C121.849 137.872 121.896 137.724 121.972 137.59L123.842 134.24C123.918 134.106 124.02 133.988 124.142 133.894C124.264 133.799 124.403 133.73 124.552 133.69C124.699 133.643 124.855 133.628 125.008 133.645C125.161 133.663 125.309 133.712 125.442 133.79L128.712 135.61Z" fill="#BA68C8"/>
<g opacity="0.2">
<path d="M139.252 113.16C140.432 113.814 141.51 114.636 142.452 115.6C143.369 116.503 144.111 117.568 144.642 118.74C145.152 119.861 145.415 121.079 145.412 122.31C145.411 123.623 145.066 124.912 144.412 126.05C143.923 126.962 143.26 127.77 142.462 128.43C141.748 128.985 140.956 129.433 140.112 129.76C139.292 130.08 138.446 130.328 137.582 130.5L135.142 130.98C134.41 131.121 133.694 131.332 133.002 131.61C132.38 131.841 131.836 132.243 131.432 132.77C131.236 133.012 130.976 133.196 130.682 133.3C130.544 133.352 130.396 133.372 130.25 133.36C130.103 133.348 129.96 133.304 129.832 133.23L126.942 131.61C126.661 131.456 126.453 131.197 126.362 130.89C126.313 130.744 126.299 130.589 126.319 130.436C126.34 130.283 126.396 130.138 126.482 130.01C127.015 129.126 127.723 128.36 128.562 127.76C129.323 127.228 130.15 126.798 131.022 126.48C131.859 126.182 132.718 125.955 133.592 125.8C134.462 125.65 135.272 125.5 136.032 125.34C136.718 125.197 137.388 124.986 138.032 124.71C138.588 124.465 139.051 124.048 139.352 123.52C139.615 123.056 139.761 122.535 139.779 122.002C139.796 121.469 139.684 120.94 139.452 120.46C138.881 119.269 137.927 118.304 136.742 117.72C135.722 117.13 134.545 116.87 133.371 116.973C132.197 117.077 131.083 117.54 130.182 118.3C129.959 118.481 129.705 118.62 129.432 118.71C129.146 118.758 128.852 118.693 128.612 118.53L125.532 116.81C125.314 116.687 125.15 116.488 125.072 116.25C125.033 116.126 125.021 115.995 125.037 115.865C125.052 115.736 125.095 115.612 125.162 115.5C125.746 114.57 126.545 113.795 127.492 113.24C128.57 112.589 129.756 112.136 130.992 111.9C132.346 111.635 133.734 111.591 135.102 111.77C136.562 111.962 137.971 112.434 139.252 113.16ZM128.712 135.61C128.848 135.685 128.968 135.787 129.064 135.909C129.16 136.031 129.231 136.17 129.272 136.32C129.317 136.467 129.331 136.622 129.313 136.775C129.296 136.928 129.248 137.076 129.172 137.21L127.302 140.56C127.151 140.833 126.897 141.034 126.597 141.12C126.297 141.206 125.976 141.17 125.702 141.02L122.432 139.19C122.295 139.119 122.174 139.018 122.079 138.896C121.984 138.773 121.917 138.631 121.882 138.48C121.835 138.334 121.818 138.179 121.834 138.026C121.849 137.872 121.896 137.724 121.972 137.59L123.842 134.24C123.918 134.106 124.02 133.988 124.142 133.894C124.264 133.799 124.403 133.73 124.552 133.69C124.699 133.643 124.855 133.628 125.008 133.645C125.161 133.663 125.309 133.712 125.442 133.79L128.712 135.61Z" fill="black"/>
</g>
<path d="M68.8096 149.88C68.9428 149.754 69.1 149.656 69.2718 149.593C69.4437 149.529 69.6266 149.501 69.8096 149.51C69.9973 149.513 70.1825 149.553 70.3543 149.628C70.5261 149.704 70.6809 149.813 70.8096 149.95L73.8896 153.29C74.0163 153.426 74.1148 153.586 74.1795 153.761C74.2441 153.935 74.2735 154.121 74.2661 154.307C74.2586 154.493 74.2145 154.675 74.1361 154.844C74.0578 155.013 73.9468 155.164 73.8096 155.29L70.5496 158.29C70.4134 158.417 70.2534 158.515 70.0789 158.58C69.9044 158.644 69.7189 158.674 69.533 158.666C69.347 158.659 69.1644 158.615 68.9957 158.536C68.8269 158.458 68.6753 158.347 68.5496 158.21L65.4696 154.87C65.3417 154.734 65.2421 154.575 65.1767 154.4C65.1113 154.225 65.0815 154.039 65.0889 153.853C65.0964 153.667 65.141 153.484 65.2201 153.315C65.2992 153.146 65.4112 152.995 65.5496 152.87L68.8096 149.88ZM47.4096 129.73C48.579 128.637 49.8991 127.718 51.3296 127C52.688 126.313 54.1575 125.873 55.6696 125.7C57.1212 125.54 58.5903 125.69 59.9796 126.14C61.4557 126.644 62.7755 127.522 63.8096 128.69C64.675 129.569 65.3551 130.613 65.8096 131.76C66.1764 132.766 66.392 133.821 66.4496 134.89C66.5067 135.931 66.4732 136.975 66.3496 138.01C66.2196 139.01 66.0996 140.01 65.9896 140.94C65.8811 141.816 65.851 142.699 65.8996 143.58C65.9329 144.372 66.1894 145.138 66.6396 145.79C66.8334 146.089 66.9439 146.434 66.9596 146.79C66.9683 146.965 66.9368 147.14 66.8675 147.301C66.7981 147.463 66.6928 147.606 66.5596 147.72L63.6796 150.39C63.4065 150.638 63.0482 150.77 62.6796 150.76C62.4968 150.767 62.315 150.729 62.1497 150.651C61.9843 150.573 61.8402 150.456 61.7296 150.31C60.9295 149.38 60.3242 148.298 59.9496 147.13C59.6364 146.081 59.4616 144.995 59.4296 143.9C59.3984 142.843 59.4586 141.786 59.6096 140.74C59.7596 139.74 59.8796 138.74 59.9796 137.84C60.0692 137.012 60.0692 136.178 59.9796 135.35C59.9144 134.637 59.6156 133.966 59.1296 133.44C58.7068 132.971 58.1763 132.613 57.584 132.395C56.9917 132.177 56.3552 132.107 55.7296 132.19C54.1866 132.39 52.7525 133.093 51.6496 134.19C49.503 136.19 48.913 138.727 49.8796 141.8C49.9982 142.12 50.0592 142.459 50.0596 142.8C50.0349 142.968 49.9771 143.13 49.8895 143.276C49.802 143.422 49.6865 143.549 49.5496 143.65L46.4796 146.49C46.2651 146.697 45.9779 146.812 45.6796 146.81C45.5269 146.807 45.3765 146.772 45.2385 146.707C45.1005 146.641 44.9781 146.547 44.8796 146.43C44.0295 145.446 43.4353 144.268 43.1496 143C42.8103 141.549 42.7324 140.049 42.9196 138.57C43.125 136.949 43.591 135.372 44.2996 133.9C45.0544 132.32 46.1109 130.904 47.4096 129.73Z" fill="#BA68C8"/>
<g opacity="0.6">
<path d="M68.8096 149.88C68.9428 149.754 69.1 149.656 69.2718 149.593C69.4437 149.529 69.6266 149.501 69.8096 149.51C69.9973 149.513 70.1825 149.553 70.3543 149.628C70.5261 149.704 70.6809 149.813 70.8096 149.95L73.8896 153.29C74.0163 153.426 74.1148 153.586 74.1795 153.761C74.2441 153.935 74.2735 154.121 74.2661 154.307C74.2586 154.493 74.2145 154.675 74.1361 154.844C74.0578 155.013 73.9468 155.164 73.8096 155.29L70.5496 158.29C70.4134 158.417 70.2534 158.515 70.0789 158.58C69.9044 158.644 69.7189 158.674 69.533 158.666C69.347 158.659 69.1644 158.615 68.9957 158.536C68.8269 158.458 68.6753 158.347 68.5496 158.21L65.4696 154.87C65.3417 154.734 65.2421 154.575 65.1767 154.4C65.1113 154.225 65.0815 154.039 65.0889 153.853C65.0964 153.667 65.141 153.484 65.2201 153.315C65.2992 153.146 65.4112 152.995 65.5496 152.87L68.8096 149.88ZM47.4096 129.73C48.579 128.637 49.8991 127.718 51.3296 127C52.688 126.313 54.1575 125.873 55.6696 125.7C57.1212 125.54 58.5903 125.69 59.9796 126.14C61.4557 126.644 62.7755 127.522 63.8096 128.69C64.675 129.569 65.3551 130.613 65.8096 131.76C66.1764 132.766 66.392 133.821 66.4496 134.89C66.5067 135.931 66.4732 136.975 66.3496 138.01C66.2196 139.01 66.0996 140.01 65.9896 140.94C65.8811 141.816 65.851 142.699 65.8996 143.58C65.9329 144.372 66.1894 145.138 66.6396 145.79C66.8334 146.089 66.9439 146.434 66.9596 146.79C66.9683 146.965 66.9368 147.14 66.8675 147.301C66.7981 147.463 66.6928 147.606 66.5596 147.72L63.6796 150.39C63.4065 150.638 63.0482 150.77 62.6796 150.76C62.4968 150.767 62.315 150.729 62.1497 150.651C61.9843 150.573 61.8402 150.456 61.7296 150.31C60.9295 149.38 60.3242 148.298 59.9496 147.13C59.6364 146.081 59.4616 144.995 59.4296 143.9C59.3984 142.843 59.4586 141.786 59.6096 140.74C59.7596 139.74 59.8796 138.74 59.9796 137.84C60.0692 137.012 60.0692 136.178 59.9796 135.35C59.9144 134.637 59.6156 133.966 59.1296 133.44C58.7068 132.971 58.1763 132.613 57.584 132.395C56.9917 132.177 56.3552 132.107 55.7296 132.19C54.1866 132.39 52.7525 133.093 51.6496 134.19C49.503 136.19 48.913 138.727 49.8796 141.8C49.9982 142.12 50.0592 142.459 50.0596 142.8C50.0349 142.968 49.9771 143.13 49.8895 143.276C49.802 143.422 49.6865 143.549 49.5496 143.65L46.4796 146.49C46.2651 146.697 45.9779 146.812 45.6796 146.81C45.5269 146.807 45.3765 146.772 45.2385 146.707C45.1005 146.641 44.9781 146.547 44.8796 146.43C44.0295 145.446 43.4353 144.268 43.1496 143C42.8103 141.549 42.7324 140.049 42.9196 138.57C43.125 136.949 43.591 135.372 44.2996 133.9C45.0544 132.32 46.1109 130.904 47.4096 129.73Z" fill="white"/>
</g>
<path d="M272.438 219.65C269.588 218.02 257.588 211.08 253.508 208.72C252.698 208.26 252.188 207.96 252.148 207.93C250.119 206.799 247.749 206.444 245.478 206.93C243.528 207.326 241.661 208.053 239.958 209.08C239.678 209.24 239.398 209.43 239.128 209.61C234.518 212.52 230.558 217.1 227.258 223.4C223.898 229.536 222.095 236.404 222.008 243.4C222.008 250.026 223.774 254.677 227.308 257.35C227.666 257.616 228.04 257.86 228.428 258.08C231.738 259.96 248.338 269.58 248.708 269.79H248.798C248.389 269.566 247.998 269.312 247.628 269.03C244.088 266.363 242.321 261.716 242.328 255.09C242.415 248.094 244.218 241.226 247.578 235.09C251.064 228.423 255.294 223.646 260.268 220.76C265.001 218.026 269.088 217.67 272.528 219.69L272.438 219.65Z" fill="#BA68C8"/>
<path opacity="0.4" d="M272.53 219.71C269.09 217.71 265.003 218.063 260.27 220.77C255.65 223.436 251.667 227.77 248.32 233.77L228 222C231.14 216.39 234.85 212.26 239.12 209.57C239.39 209.4 239.67 209.2 239.95 209.04C241.652 208.011 243.52 207.287 245.47 206.9C247.741 206.408 250.113 206.764 252.14 207.9L253.5 208.69C257.58 211.04 269.58 217.98 272.43 219.61L272.53 219.71Z" fill="black"/>
<path opacity="0.3" d="M248.798 269.76H248.708C248.338 269.55 231.708 259.93 228.428 258.05C228.04 257.83 227.666 257.586 227.308 257.32C223.774 254.653 222.008 250.006 222.008 243.38C222.092 236.384 223.895 229.515 227.258 223.38C227.498 222.91 227.748 222.45 228.008 222.01L248.318 233.74C248.068 234.18 247.818 234.64 247.578 235.1C244.218 241.236 242.415 248.104 242.328 255.1C242.328 261.726 244.094 266.373 247.628 269.04C248 269.308 248.391 269.549 248.798 269.76Z" fill="black"/>
<path d="M263.581 48.0498C273.441 42.3498 281.834 39.9265 288.761 40.7798C291.58 41.1166 294.302 42.0215 296.761 43.4398C296.692 43.4035 296.625 43.3635 296.561 43.3198C294.181 41.9798 279.841 33.7098 276.561 31.7798C274.059 30.3175 271.28 29.3912 268.401 29.0598C261.468 28.2132 253.071 30.6332 243.211 36.3198C227.878 45.1665 215.544 58.1665 206.211 75.3198C196.878 92.4732 192.261 109.983 192.361 127.85L212.671 139.58C212.531 121.7 217.148 104.187 226.521 87.0398C235.894 69.8932 248.248 56.8965 263.581 48.0498Z" fill="#BA68C8"/>
<path opacity="0.2" d="M296.598 43.3299C294.175 41.98 291.512 41.114 288.758 40.7799C281.838 39.9266 273.445 42.3499 263.578 48.0499C248.245 56.8899 235.911 69.8899 226.578 87.0499C226.188 87.7599 225.808 88.4799 225.438 89.1899L205.078 77.4399C205.448 76.7299 205.828 76.0099 206.218 75.2999C215.591 58.1599 227.925 45.1599 243.218 36.2999C253.091 30.6066 261.488 28.1866 268.408 29.0399C271.288 29.3746 274.067 30.3043 276.568 31.7699C279.878 33.7199 294.218 41.9999 296.598 43.3299Z" fill="black"/>
<path opacity="0.3" d="M225.39 89.1699C216.783 105.63 212.547 122.427 212.68 139.56L192.37 127.83C192.243 110.69 196.48 93.8933 205.08 77.4399L225.39 89.1699Z" fill="black"/>
<path d="M277.379 81.2898C273.693 79.3298 268.769 80.0965 262.609 83.5898C262.401 87.2548 261.646 90.8681 260.369 94.3098C258.829 98.4565 254.349 107.01 246.929 119.97C239.243 133.37 233.683 146.166 230.249 158.36C226.844 170.398 225.114 182.849 225.109 195.36L225.209 201.59L239.069 209.59L245.529 213.32L245.419 207.08V207C245.441 194.53 247.171 182.121 250.559 170.12C253.993 157.926 259.556 145.133 267.249 131.74C274.663 118.78 279.139 110.223 280.679 106.07C282.217 101.964 283.003 97.6144 282.999 93.2298C282.999 87.2632 281.126 83.2832 277.379 81.2898Z" fill="#BA68C8"/>
<path opacity="0.3" d="M278.689 110.56C276.396 115.333 272.583 122.38 267.249 131.7C259.549 145.1 253.986 157.897 250.559 170.09C247.167 182.101 245.438 194.52 245.419 207V207.16L245.529 213.4L239.069 209.68L225.209 201.68L225.109 195.44C225.115 182.929 226.845 170.479 230.249 158.44C233.683 146.247 239.243 133.45 246.929 120.05C252.263 110.717 256.083 103.673 258.389 98.9199L278.689 110.56Z" fill="black"/>
<path opacity="0.4" d="M283.001 93.2298C283.003 97.6004 282.22 101.936 280.691 106.03C280.261 107.2 279.591 108.71 278.691 110.56L258.391 98.8398C259.277 96.9865 259.944 95.4765 260.391 94.3098C261.668 90.8681 262.423 87.2548 262.631 83.5898C268.791 80.0965 273.714 79.3298 277.401 81.2898C281.087 83.2498 282.954 87.2298 283.001 93.2298Z" fill="black"/>
<path d="M240.173 123.68L212.683 139.56C212.543 121.68 217.159 104.167 226.533 87.0199C235.906 69.8733 248.239 56.8733 263.533 48.0199C273.393 42.3199 281.786 39.8966 288.713 40.7499C295.639 41.6033 301.183 45.3999 305.343 52.1399C309.509 58.8799 311.593 67.2866 311.593 77.3599C311.551 83.2082 310.881 89.0351 309.593 94.7399C308.034 101.564 305.931 108.252 303.303 114.74C301.623 118.98 297.599 126.807 291.233 138.22C285.146 149.1 281.333 156.503 279.793 160.43C278.083 165.091 276.814 169.902 276.003 174.8C274.792 182.121 274.124 189.521 274.003 196.94L245.573 213.36L245.463 207.12C245.469 194.609 247.198 182.159 250.603 170.12C254.036 157.927 259.599 145.133 267.293 131.74C274.706 118.78 279.183 110.223 280.723 106.07C282.247 101.961 283.019 97.6121 283.003 93.2299C283.003 87.2299 281.133 83.2499 277.393 81.2899C273.653 79.3299 268.633 80.1499 262.333 83.7499C255.893 87.4699 250.609 93.0499 246.483 100.49C242.447 107.56 240.276 115.54 240.173 123.68Z" fill="#BA68C8"/>
<path d="M260.223 220.83C265.323 217.877 269.677 217.693 273.283 220.28C276.89 222.867 278.693 227.47 278.693 234.09C278.584 241.124 276.747 248.023 273.343 254.18C269.783 260.947 265.48 265.787 260.433 268.7C255.387 271.613 251.1 271.733 247.573 269.06C244.04 266.393 242.273 261.743 242.273 255.11C242.36 248.114 244.163 241.246 247.523 235.11C251.023 228.457 255.257 223.697 260.223 220.83Z" fill="#BA68C8"/>
</svg>
