<svg width="40" height="40" viewBox="0 0 40 40" fill="none" xmlns="http://www.w3.org/2000/svg">
<path d="M11.8521 36.6387C10.9949 36.6387 10.2629 36.3335 9.65625 35.7233C9.04986 35.1127 8.74667 34.379 8.74667 33.522C8.74667 32.6648 9.05194 31.9328 9.6625 31.3262C10.2728 30.7198 11.0065 30.4166 11.8638 30.4166C12.721 30.4166 13.4528 30.7219 14.0592 31.3324C14.6656 31.9427 14.9688 32.6765 14.9688 33.5337C14.9688 34.3909 14.6636 35.1227 14.0533 35.7291C13.4428 36.3355 12.709 36.6387 11.8521 36.6387ZM28.5188 36.6387C27.6615 36.6387 26.9296 36.3335 26.3229 35.7233C25.7165 35.1127 25.4133 34.379 25.4133 33.522C25.4133 32.6648 25.7186 31.9328 26.3292 31.3262C26.9394 30.7198 27.6732 30.4166 28.5304 30.4166C29.3876 30.4166 30.1194 30.7219 30.7258 31.3324C31.3322 31.9427 31.6354 32.6765 31.6354 33.5337C31.6354 34.3909 31.3303 35.1227 30.72 35.7291C30.1094 36.3355 29.3757 36.6387 28.5188 36.6387ZM9.94125 9.41659L14.33 18.5278H26.2188L31.2188 9.41659H9.94125ZM8.58 6.63867H33.1375C33.7758 6.63867 34.2615 6.92811 34.5946 7.507C34.9274 8.08561 34.9318 8.66659 34.6079 9.24992L28.8854 19.5553C28.5799 20.0926 28.1789 20.5185 27.6825 20.8333C27.1861 21.148 26.6426 21.3053 26.0521 21.3053H13.4967L11.33 25.3053H31.6354V28.0833H11.58C10.3856 28.0833 9.51056 27.6412 8.955 26.757C8.39944 25.8726 8.39486 24.9258 8.94125 23.9166L11.4688 19.2778L5.24667 6.11117H1.96875V3.33325H7.02458L8.58 6.63867Z" fill="black"/>
</svg>
