<svg width="40" height="40" viewBox="0 0 40 40" fill="none" xmlns="http://www.w3.org/2000/svg">
<path d="M20.0026 34.9722L18.058 33.2222C15.1641 30.5811 12.7718 28.3027 10.8809 26.3872C8.98983 24.4716 7.48413 22.7569 6.36385 21.243C5.2433 19.7291 4.45858 18.3519 4.00969 17.1113C3.56052 15.8705 3.33594 14.6112 3.33594 13.3334C3.33594 10.7934 4.18774 8.67231 5.89135 6.97008C7.59524 5.26786 9.70635 4.41675 12.2247 4.41675C13.7619 4.41675 15.1972 4.76855 16.5305 5.47217C17.8639 6.17605 19.0212 7.18536 20.0026 8.50008C21.0951 7.1298 22.2941 6.10661 23.5997 5.4305C24.9052 4.75467 26.2989 4.41675 27.7805 4.41675C30.2989 4.41675 32.41 5.26786 34.1139 6.97008C35.8175 8.67231 36.6693 10.7934 36.6693 13.3334C36.6693 14.6112 36.4447 15.8705 35.9955 17.1113C35.5466 18.3519 34.7619 19.7291 33.6414 21.243C32.5211 22.7569 31.0154 24.4716 29.1243 26.3872C27.2334 28.3027 24.8411 30.5811 21.9472 33.2222L20.0026 34.9722ZM20.0026 31.278C22.7662 28.7594 25.0405 26.5997 26.8255 24.7988C28.6102 22.9977 30.0258 21.4236 31.0722 20.0763C32.1183 18.7291 32.8497 17.5288 33.2664 16.4755C33.683 15.4222 33.8914 14.3762 33.8914 13.3376C33.8914 11.557 33.3173 10.088 32.1693 8.9305C31.0212 7.77328 29.5604 7.19466 27.7868 7.19466C26.3973 7.19466 25.1114 7.60897 23.9289 8.43758C22.7466 9.26619 21.8361 10.3981 21.1972 11.8334H18.7805C18.16 10.4167 17.2586 9.28939 16.0764 8.45133C14.8939 7.61355 13.6079 7.19466 12.2184 7.19466C10.4448 7.19466 8.98399 7.77328 7.83594 8.9305C6.68788 10.088 6.11385 11.5586 6.11385 13.3422C6.11385 14.3827 6.32219 15.433 6.73885 16.493C7.15552 17.5533 7.88691 18.7616 8.93302 20.118C9.97941 21.4747 11.4008 23.0488 13.1972 24.8405C14.9933 26.6322 17.2618 28.778 20.0026 31.278Z" fill="black"/>
</svg>
