<svg width="40" height="40" viewBox="0 0 40 40" fill="none" xmlns="http://www.w3.org/2000/svg">
<path d="M19.9974 19.9721C18.1641 19.9721 16.6409 19.3657 15.4278 18.1529C14.215 16.9399 13.6086 15.4167 13.6086 13.5833C13.6086 11.75 14.215 10.2268 15.4278 9.01375C16.6409 7.80097 18.1641 7.19458 19.9974 7.19458C21.8307 7.19458 23.3539 7.80097 24.567 9.01375C25.7798 10.2268 26.3861 11.75 26.3861 13.5833C26.3861 15.4167 25.7798 16.9399 24.567 18.1529C23.3539 19.3657 21.8307 19.9721 19.9974 19.9721ZM6.66406 33.3333V29.1667C6.66406 28.1481 6.92101 27.2568 7.4349 26.4929C7.94878 25.729 8.61781 25.1481 9.44198 24.75C11.2567 23.9075 13.0298 23.2756 14.7611 22.8542C16.4928 22.4328 18.2382 22.2221 19.9974 22.2221C21.7566 22.2221 23.4973 22.4374 25.2195 22.8679C26.9417 23.2985 28.7095 23.9276 30.5228 24.7554C31.3711 25.156 32.0511 25.7367 32.5628 26.4975C33.0748 27.2583 33.3307 28.1481 33.3307 29.1667V33.3333H6.66406ZM9.44198 30.5554H30.5528V29.1667C30.5528 28.7686 30.4395 28.3936 30.2128 28.0417C29.9859 27.6897 29.7011 27.4258 29.3586 27.25C27.6734 26.4258 26.0853 25.8449 24.5945 25.5071C23.1039 25.169 21.5716 25 19.9974 25C18.4232 25 16.8816 25.169 15.3724 25.5071C13.8632 25.8449 12.2753 26.4258 10.6086 27.25C10.2659 27.4258 9.98573 27.6897 9.76823 28.0417C9.55073 28.3936 9.44198 28.7686 9.44198 29.1667V30.5554ZM19.9974 17.1946C21.0252 17.1946 21.8839 16.8496 22.5736 16.1596C23.2636 15.4699 23.6086 14.6111 23.6086 13.5833C23.6086 12.5556 23.2636 11.6968 22.5736 11.0071C21.8839 10.3171 21.0252 9.97208 19.9974 9.97208C18.9696 9.97208 18.1109 10.3171 17.4211 11.0071C16.7311 11.6968 16.3861 12.5556 16.3861 13.5833C16.3861 14.6111 16.7311 15.4699 17.4211 16.1596C18.1109 16.8496 18.9696 17.1946 19.9974 17.1946Z" fill="black"/>
</svg>
